<svg xmlns="http://www.w3.org/2000/svg" version="1.1" xmlns:xlink="http://www.w3.org/1999/xlink" xmlns:svgjs="http://svgjs.dev/svgjs" width="1500" height="1500" viewBox="0 0 1500 1500"><rect width="1500" height="1500" fill="#ffffff"></rect><g transform="matrix(0.6666666666666666,0,0,0.6666666666666666,249.15874532001175,360.0795698924731)"><svg viewBox="0 0 319 248" data-background-color="#ffffff" preserveAspectRatio="xMidYMid meet" height="1166" width="1500" xmlns="http://www.w3.org/2000/svg" xmlns:xlink="http://www.w3.org/1999/xlink"><g id="tight-bounds" transform="matrix(1,0,0,1,0.26947151950417947,0.4000000000000057)"><svg viewBox="0 0 318.46216823638895 247.2" height="247.2" width="318.46216823638895"><g><svg viewBox="0 0 395.52 307.01462764464105" height="247.2" width="318.46216823638895"><g transform="matrix(1,0,0,1,0,244.81958965204763)"><svg viewBox="0 0 395.52 62.19503799259343" height="62.19503799259343" width="395.52"><g id="textblocktransform"><svg viewBox="0 0 395.52 62.19503799259343" height="62.19503799259343" width="395.52" id="textblock"><g><svg viewBox="0 0 395.52 33.54503159125809" height="33.54503159125809" width="395.52"><g transform="matrix(1,0,0,1,0,0)"><svg width="395.52" viewBox="1.161110888895 -37.8 578.8722224444383 49.099999999999994" height="33.54503159125809" data-palette-color="#ba3b0a"><path d="M32.05-32.5L32.05-13.75Q32.05-9.25 31.23-6.38 30.4-3.5 28.75-1.88 27.1-0.25 24.68 0.38 22.25 1 19.1 1L19.1 1Q15.75 1 13.13 0.4 10.5-0.2 8.7-1.75 6.9-3.3 5.98-6.1 5.05-8.9 5.05-13.25L5.05-13.25 5.05-32.5 1.2-33.5Q1.05-34.45 1.45-35.25L1.45-35.25Q2.8-35.2 4.48-35.1 6.15-35 7.55-35L7.55-35Q9-35 11-35.1 13-35.2 14.4-35.25L14.4-35.25Q14.55-34.3 14.3-33.5L14.3-33.5Q13.3-33.35 12.3-33.15 11.3-32.95 10.3-32.5L10.3-32.5 10.3-11.75Q10.3-6.4 12.9-3.95 15.5-1.5 20.35-1.5L20.35-1.5Q23.65-1.5 25.48-2.75 27.3-4 28.1-6.03 28.9-8.05 29.1-10.48 29.3-12.9 29.3-15.25L29.3-15.25 29.3-32.5 25.45-33.5Q25.3-34.45 25.7-35.25L25.7-35.25Q27.05-35.2 28.23-35.1 29.4-35 30.8-35L30.8-35Q32.25-35 33.5-35.1 34.75-35.2 36.15-35.25L36.15-35.25Q36.3-34.3 36.05-33.5L36.05-33.5Q34.85-33.3 33.85-33.1 32.85-32.9 32.05-32.5L32.05-32.5ZM47-25.05L46.85-21.65 46.9-21.6Q49.2-24 51.6-24.9 54-25.8 55.8-25.8L55.8-25.8Q58.25-25.8 59.95-24.73 61.65-23.65 62.35-21.6L62.35-21.6Q64.5-24 66.6-24.9 68.7-25.8 70.8-25.8L70.8-25.8Q74.05-25.8 75.92-23.95 77.8-22.1 77.8-18.55L77.8-18.55 77.85-2.5 81.35-1.5Q81.5-0.55 81.1 0.25L81.1 0.25Q79.75 0.15 78.25 0.08 76.75 0 75.35 0L75.35 0Q73.95 0 72.4 0.08 70.85 0.15 69.45 0.25L69.45 0.25Q69.3-0.7 69.55-1.5L69.55-1.5Q70.55-1.7 71.32-1.95 72.1-2.2 72.85-2.5L72.85-2.5 72.85-16.3Q72.85-19.7 71.8-20.95 70.75-22.2 68.45-22.2L68.45-22.2Q67.35-22.2 65.85-21.48 64.35-20.75 62.8-18.95L62.8-18.95 62.8-18.55 62.85-2.5 66.35-1.5Q66.5-0.55 66.1 0.25L66.1 0.25Q64.75 0.15 63.25 0.08 61.75 0 60.35 0L60.35 0Q58.95 0 57.4 0.08 55.85 0.15 54.45 0.25L54.45 0.25Q54.3-0.7 54.55-1.5L54.55-1.5Q55.55-1.7 56.32-1.95 57.1-2.2 57.85-2.5L57.85-2.5 57.85-16.3Q57.85-19.7 56.8-21 55.75-22.3 53.45-22.3L53.45-22.3Q52.25-22.3 50.62-21.58 49-20.85 47.25-19.3L47.25-19.3 47.25-2.5 50.6-1.5Q50.75-0.55 50.35 0.25L50.35 0.25Q49 0.15 47.57 0.08 46.15 0 44.75 0L44.75 0Q43.35 0 41.7 0.08 40.05 0.15 38.65 0.25L38.65 0.25Q38.5-0.7 38.75-1.5L38.75-1.5Q39.65-1.75 40.55-1.98 41.45-2.2 42.25-2.5L42.25-2.5 42.25-22 38.1-22.4Q37.95-23.4 38.35-24.15L38.35-24.15Q40.2-24.45 41.95-24.8 43.7-25.15 45.3-25.5L45.3-25.5Q46.15-25.45 47-25.05L47-25.05ZM90.4 0.85L90.4 0.85Q87.4 0.85 85.35-0.73 83.3-2.3 83.3-5.5L83.3-5.5Q83.3-8 84.52-9.6 85.75-11.2 87.82-12.08 89.9-12.95 92.45-13.25 95-13.55 97.65-13.5L97.65-13.5 97.7-17.9Q97.75-20.7 96.65-22.23 95.55-23.75 93.3-23.75L93.3-23.75Q92.05-23.75 90.9-23.58 89.75-23.4 88.6-23L88.6-23 87.95-17.7Q87.55-17.5 86.85-17.48 86.15-17.45 85.75-17.5L85.75-17.5Q85.3-19.15 85-20.8 84.7-22.45 84.75-24L84.75-24Q87.1-25.1 89.47-25.55 91.85-26 94.65-26L94.65-26Q97.45-26 99.17-25.1 100.9-24.2 101.72-22 102.55-19.8 102.55-15.85L102.55-15.85 102.55-2.45Q103.4-2.05 104.3-1.88 105.2-1.7 106.05-1.45L106.05-1.45Q106.2-0.5 105.8 0.3L105.8 0.3Q105 0.45 103.87 0.55 102.75 0.65 101.6 0.65L101.6 0.65Q99.95 0.65 98.75 0.35L98.75 0.35 98.05-2.25 97.85-2.25Q96.6-0.95 94.75-0.05 92.9 0.85 90.4 0.85ZM92.3-1.9L92.3-1.9Q93.7-1.9 95.3-2.78 96.9-3.65 97.65-4.75L97.65-4.75 97.65-11.5Q92.5-11.5 90.4-10.28 88.3-9.05 88.3-6L88.3-6Q88.3-3.95 89.4-2.93 90.5-1.9 92.3-1.9ZM143.14-13.25L151.29-34 151.29-35 154.29-35Q155.74-35 157.74-35.1 159.74-35.2 161.14-35.25L161.14-35.25Q161.29-34.3 161.04-33.5L161.04-33.5Q159.94-33.3 158.94-33.1 157.94-32.9 157.04-32.5L157.04-32.5 159.54-2.5 163.39-1.5Q163.54-0.55 163.14 0.25L163.14 0.25Q161.79 0.15 160.12 0.08 158.44 0 157.04 0L157.04 0Q155.64 0 153.62 0.08 151.59 0.15 150.19 0.25L150.19 0.25Q150.04-0.7 150.29-1.5L150.29-1.5Q151.39-1.7 152.44-1.85 153.49-2 154.29-2.5L154.29-2.5 152.19-24.4Q152.14-25.1 152.12-25.8 152.09-26.5 152.09-27.2L152.09-27.2Q152.09-27.75 152.09-28.35 152.09-28.95 152.14-29.5L152.14-29.5 151.99-29.5Q151.64-28.25 151.27-26.98 150.89-25.7 150.39-24.4L150.39-24.4 141.34-1.55Q140.39-1 139.54-1.05L139.54-1.05 129.69-24.4Q129.24-25.55 128.84-26.83 128.44-28.1 128.04-29.5L128.04-29.5 127.89-29.5 127.74-24.35 126.49-2.45 130.34-1.45Q130.49-0.5 130.09 0.3L130.09 0.3Q128.74 0.2 127.49 0.1 126.24 0 124.84 0L124.84 0Q123.44 0 122.17 0.08 120.89 0.15 119.49 0.25L119.49 0.25Q119.34-0.7 119.59-1.5L119.59-1.5Q120.59-1.65 121.57-1.9 122.54-2.15 123.49-2.5L123.49-2.5 125.49-32.5 121.64-33.5Q121.49-34.45 121.89-35.25L121.89-35.25Q123.24-35.2 124.92-35.1 126.59-35 127.99-35L127.99-35 131.24-35 131.24-34 139.39-13.25Q140.04-11.7 140.44-10.3 140.84-8.9 141.19-7.35L141.19-7.35 141.29-7.35Q141.69-8.95 142.14-10.38 142.59-11.8 143.14-13.25L143.14-13.25ZM172.94 0.85L172.94 0.85Q169.94 0.85 167.89-0.73 165.84-2.3 165.84-5.5L165.84-5.5Q165.84-8 167.06-9.6 168.29-11.2 170.36-12.08 172.44-12.95 174.99-13.25 177.54-13.55 180.19-13.5L180.19-13.5 180.24-17.9Q180.29-20.7 179.19-22.23 178.09-23.75 175.84-23.75L175.84-23.75Q174.59-23.75 173.44-23.58 172.29-23.4 171.14-23L171.14-23 170.49-17.7Q170.09-17.5 169.39-17.48 168.69-17.45 168.29-17.5L168.29-17.5Q167.84-19.15 167.54-20.8 167.24-22.45 167.29-24L167.29-24Q169.64-25.1 172.01-25.55 174.39-26 177.19-26L177.19-26Q179.99-26 181.71-25.1 183.44-24.2 184.26-22 185.09-19.8 185.09-15.85L185.09-15.85 185.09-2.45Q185.94-2.05 186.84-1.88 187.74-1.7 188.59-1.45L188.59-1.45Q188.74-0.5 188.34 0.3L188.34 0.3Q187.54 0.45 186.41 0.55 185.29 0.65 184.14 0.65L184.14 0.65Q182.49 0.65 181.29 0.35L181.29 0.35 180.59-2.25 180.39-2.25Q179.14-0.95 177.29-0.05 175.44 0.85 172.94 0.85ZM174.84-1.9L174.84-1.9Q176.24-1.9 177.84-2.78 179.44-3.65 180.19-4.75L180.19-4.75 180.19-11.5Q175.04-11.5 172.94-10.28 170.84-9.05 170.84-6L170.84-6Q170.84-3.95 171.94-2.93 173.04-1.9 174.84-1.9ZM198.34-37.25L198.34-22.25 198.59-22.25Q200.84-24.3 202.96-25.15 205.09-26 206.79-26L206.79-26Q210.89-26 212.76-23.85 214.64-21.7 214.64-18.2L214.64-18.2 214.64-2.5 218.24-1.5Q218.39-0.55 217.99 0.25L217.99 0.25Q216.64 0.15 215.09 0.08 213.54 0 212.14 0L212.14 0Q210.74 0 209.09 0.08 207.44 0.15 206.04 0.25L206.04 0.25Q205.89-0.7 206.14-1.5L206.14-1.5Q207.04-1.7 207.94-1.93 208.84-2.15 209.64-2.5L209.64-2.5 209.64-17.45Q209.64-19.55 208.99-20.65 208.34-21.75 207.24-22.13 206.14-22.5 204.79-22.5L204.79-22.5Q203.19-22.5 201.46-21.7 199.74-20.9 198.59-19.6L198.59-19.6 198.59-2.5 201.94-1.5Q202.09-0.55 201.69 0.25L201.69 0.25Q200.34 0.15 198.91 0.08 197.49 0 196.09 0L196.09 0Q194.69 0 193.04 0.08 191.39 0.15 189.99 0.25L189.99 0.25Q189.84-0.7 190.09-1.5L190.09-1.5Q191.04-1.75 191.96-1.95 192.89-2.15 193.59-2.5L193.59-2.5 193.59-34.3 189.44-34.7Q189.29-35.7 189.69-36.45L189.69-36.45Q193.29-37 196.44-37.8L196.44-37.8Q196.94-37.75 197.39-37.63 197.84-37.5 198.34-37.25L198.34-37.25ZM226.18-13.5L226.18-12.5Q226.18-7.45 228.21-4.67 230.23-1.9 233.73-1.9L233.73-1.9Q235.28-1.9 236.33-2.08 237.38-2.25 238.41-2.75 239.43-3.25 240.73-4.15L240.73-4.15Q241.53-3.8 241.63-2.95L241.63-2.95Q240.08-1.15 237.93-0.15 235.78 0.85 233.58 0.85L233.58 0.85Q229.78 0.85 226.93-0.75 224.08-2.35 222.48-5.35 220.88-8.35 220.88-12.5L220.88-12.5Q220.88-16.75 222.56-19.73 224.23-22.7 227.06-24.28 229.88-25.85 233.33-25.85L233.33-25.85Q237.78-25.85 239.91-22.88 242.03-19.9 242.03-15.2L242.03-15.2Q242.03-14.85 242.03-14.55 242.03-14.25 241.98-13.9L241.98-13.9 241.28-13.35 226.18-13.5ZM233.28-23.7L233.28-23.7Q231.83-23.7 230.41-22.8 228.98-21.9 227.88-20.1 226.78-18.3 226.38-15.55L226.38-15.55 237.28-16.15Q237.28-20 236.46-21.85 235.63-23.7 233.28-23.7ZM248.73-7.5L249.23-2.2Q250.28-1.7 251.36-1.5 252.43-1.3 253.78-1.3L253.78-1.3Q255.83-1.3 257.43-2.2 259.03-3.1 259.03-5.1L259.03-5.1Q259.03-6.15 258.46-7.05 257.88-7.95 256.46-8.9 255.03-9.85 252.38-11.05L252.38-11.05Q249.48-12.4 247.88-14.18 246.28-15.95 246.28-19.1L246.28-19.1Q246.28-21.65 247.56-23.13 248.83-24.6 250.86-25.25 252.88-25.9 255.13-25.9L255.13-25.9Q257.08-25.9 259.01-25.53 260.93-25.15 262.43-24.5L262.43-24.5Q262.43-24.25 262.46-23.95 262.48-23.65 262.48-23.4L262.48-23.4Q262.48-20.35 261.53-17.65L261.53-17.65Q261.33-17.6 261.16-17.57 260.98-17.55 260.78-17.55L260.78-17.55Q260.03-17.55 259.28-17.85L259.28-17.85 258.48-23.25Q257.83-23.45 256.98-23.58 256.13-23.7 255.28-23.7L255.28-23.7Q254.13-23.7 253.01-23.38 251.88-23.05 251.16-22.28 250.43-21.5 250.43-20.1L250.43-20.1Q250.43-19.15 250.86-18.3 251.28-17.45 252.56-16.53 253.83-15.6 256.38-14.35L256.38-14.35Q260.38-12.45 262.01-10.68 263.63-8.9 263.63-6.25L263.63-6.25Q263.63-3.7 262.28-2.1 260.93-0.5 258.76 0.25 256.58 1 254.13 1L254.13 1Q251.78 1 249.76 0.63 247.73 0.25 245.68-1L245.68-1 245.68-1.85Q245.68-3.2 245.86-4.63 246.03-6.05 246.58-7.7L246.58-7.7Q246.88-7.75 247.08-7.75L247.08-7.75Q247.98-7.75 248.73-7.5L248.73-7.5ZM293.08 1.4L286.78-16.65 280.58 0.7Q280.23 0.9 279.45 1.13 278.68 1.35 278.23 1.35L278.23 1.35 269.03-22.5 265.18-23.5Q265.03-24.45 265.43-25.25L265.43-25.25Q266.78-25.2 268.45-25.1 270.13-25 271.53-25L271.53-25Q272.98-25 274.7-25.1 276.43-25.2 277.83-25.25L277.83-25.25Q277.98-24.3 277.73-23.5L277.73-23.5Q276.83-23.3 275.9-23.08 274.98-22.85 274.28-22.5L274.28-22.5 277.98-12.05Q278.58-10.35 279.13-8.5 279.68-6.65 280.08-4.95L280.08-4.95 280.23-4.95Q280.68-6.7 281.2-8.5 281.73-10.3 282.28-11.85L282.28-11.85 285.48-20.4 284.78-22.5 280.93-23.5Q280.78-24.45 281.18-25.25L281.18-25.25Q282.53-25.2 284.13-25.1 285.73-25 287.13-25L287.13-25Q288.58-25 290.03-25.1 291.48-25.2 292.88-25.25L292.88-25.25Q293.03-24.3 292.78-23.5L292.78-23.5Q291.88-23.3 290.93-23.1 289.98-22.9 289.33-22.5L289.33-22.5 292.68-11.6Q293.23-9.75 293.78-8 294.33-6.25 294.78-4.45L294.78-4.45 294.93-4.45Q295.33-6.15 295.83-7.83 296.33-9.5 296.88-11.2L296.88-11.2 300.43-22.5 296.58-23.5Q296.43-24.45 296.83-25.25L296.83-25.25Q298.18-25.2 299.3-25.1 300.43-25 301.83-25L301.83-25Q303.28-25 304.5-25.1 305.73-25.2 307.13-25.25L307.13-25.25Q307.28-24.3 307.03-23.5L307.03-23.5Q306.08-23.3 305.15-23.1 304.23-22.9 303.48-22.5L303.48-22.5 295.48 0.7Q295.13 0.9 294.33 1.15 293.53 1.4 293.08 1.4L293.08 1.4ZM315.58 0.85L315.58 0.85Q312.58 0.85 310.53-0.73 308.48-2.3 308.48-5.5L308.48-5.5Q308.48-8 309.7-9.6 310.93-11.2 313-12.08 315.08-12.95 317.63-13.25 320.18-13.55 322.83-13.5L322.83-13.5 322.88-17.9Q322.93-20.7 321.83-22.23 320.73-23.75 318.48-23.75L318.48-23.75Q317.23-23.75 316.08-23.58 314.93-23.4 313.78-23L313.78-23 313.13-17.7Q312.73-17.5 312.03-17.48 311.33-17.45 310.93-17.5L310.93-17.5Q310.48-19.15 310.18-20.8 309.88-22.45 309.93-24L309.93-24Q312.28-25.1 314.65-25.55 317.03-26 319.83-26L319.83-26Q322.63-26 324.35-25.1 326.08-24.2 326.9-22 327.73-19.8 327.73-15.85L327.73-15.85 327.73-2.45Q328.58-2.05 329.48-1.88 330.38-1.7 331.23-1.45L331.23-1.45Q331.38-0.5 330.98 0.3L330.98 0.3Q330.18 0.45 329.05 0.55 327.93 0.65 326.78 0.65L326.78 0.65Q325.13 0.65 323.93 0.35L323.93 0.35 323.23-2.25 323.03-2.25Q321.78-0.95 319.93-0.05 318.08 0.85 315.58 0.85ZM317.48-1.9L317.48-1.9Q318.88-1.9 320.48-2.78 322.08-3.65 322.83-4.75L322.83-4.75 322.83-11.5Q317.68-11.5 315.58-10.28 313.48-9.05 313.48-6L313.48-6Q313.48-3.95 314.58-2.93 315.68-1.9 317.48-1.9ZM341.77-16.85L341.77-2.5 346.62-1.5Q346.77-0.55 346.37 0.25L346.37 0.25Q345.47 0.2 344.15 0.15 342.82 0.1 341.52 0.05 340.22 0 339.27 0L339.27 0Q337.87 0 336.22 0.08 334.57 0.15 333.17 0.25L333.17 0.25Q333.02-0.7 333.27-1.5L333.27-1.5Q334.22-1.75 335.15-1.95 336.07-2.15 336.77-2.5L336.77-2.5 336.77-22 332.62-22.4Q332.47-23.4 332.87-24.15L332.87-24.15Q334.67-24.4 336.5-24.75 338.32-25.1 339.87-25.5L339.87-25.5Q340.37-25.45 340.7-25.33 341.02-25.2 341.52-24.95L341.52-24.95 341.52-20.4 341.57-20.35Q343.12-22.65 345.05-24.25 346.97-25.85 349.17-25.85L349.17-25.85Q350.02-25.85 350.85-25.73 351.67-25.6 352.47-25.1L352.47-25.1Q352.57-23.05 352.3-21.2 352.02-19.35 351.47-17.6L351.47-17.6Q351.12-17.55 350.37-17.57 349.62-17.6 349.22-17.8L349.22-17.8 348.52-22.8Q346.77-22.8 345-21.53 343.22-20.25 341.77-16.85L341.77-16.85ZM361.92 0.85L361.92 0.85Q358.92 0.85 356.87-0.73 354.82-2.3 354.82-5.5L354.82-5.5Q354.82-8 356.05-9.6 357.27-11.2 359.35-12.08 361.42-12.95 363.97-13.25 366.52-13.55 369.17-13.5L369.17-13.5 369.22-17.9Q369.27-20.7 368.17-22.23 367.07-23.75 364.82-23.75L364.82-23.75Q363.57-23.75 362.42-23.58 361.27-23.4 360.12-23L360.12-23 359.47-17.7Q359.07-17.5 358.37-17.48 357.67-17.45 357.27-17.5L357.27-17.5Q356.82-19.15 356.52-20.8 356.22-22.45 356.27-24L356.27-24Q358.62-25.1 361-25.55 363.37-26 366.17-26L366.17-26Q368.97-26 370.7-25.1 372.42-24.2 373.25-22 374.07-19.8 374.07-15.85L374.07-15.85 374.07-2.45Q374.92-2.05 375.82-1.88 376.72-1.7 377.57-1.45L377.57-1.45Q377.72-0.5 377.32 0.3L377.32 0.3Q376.52 0.45 375.4 0.55 374.27 0.65 373.12 0.65L373.12 0.65Q371.47 0.65 370.27 0.35L370.27 0.35 369.57-2.25 369.37-2.25Q368.12-0.95 366.27-0.05 364.42 0.85 361.92 0.85ZM363.82-1.9L363.82-1.9Q365.22-1.9 366.82-2.78 368.42-3.65 369.17-4.75L369.17-4.75 369.17-11.5Q364.02-11.5 361.92-10.28 359.82-9.05 359.82-6L359.82-6Q359.82-3.95 360.92-2.93 362.02-1.9 363.82-1.9ZM419.57-5.45L419.57-5.45Q420.22-5.25 420.44-4.8 420.67-4.35 420.72-3.8L420.72-3.8Q418.42-1.5 415.52-0.25 412.62 1 409.32 1L409.32 1Q405.97 1 402.89-0.1 399.82-1.2 397.39-3.48 394.97-5.75 393.57-9.22 392.17-12.7 392.17-17.5L392.17-17.5Q392.17-22.25 393.74-25.73 395.32-29.2 397.89-31.48 400.47-33.75 403.59-34.88 406.72-36 409.82-36L409.82-36Q413.47-36 416.19-35.43 418.92-34.85 420.92-33.75L420.92-33.75Q421.02-31.45 420.54-29.45 420.07-27.45 419.37-25.55L419.37-25.55Q418.87-25.5 418.27-25.55 417.67-25.6 417.17-25.8L417.17-25.8 416.62-32.25Q414.97-32.95 413.47-33.15 411.97-33.35 410.17-33.35L410.17-33.35Q406.67-33.35 403.89-31.25 401.12-29.15 399.54-25.55 397.97-21.95 397.97-17.5L397.97-17.5Q397.97-12.8 399.32-9.22 400.67-5.65 403.32-3.65 405.97-1.65 409.87-1.65L409.87-1.65Q412.97-1.65 415.32-2.75 417.67-3.85 419.57-5.45ZM430.86 0.85L430.86 0.85Q427.86 0.85 425.81-0.73 423.76-2.3 423.76-5.5L423.76-5.5Q423.76-8 424.99-9.6 426.21-11.2 428.29-12.08 430.36-12.95 432.91-13.25 435.46-13.55 438.11-13.5L438.11-13.5 438.16-17.9Q438.21-20.7 437.11-22.23 436.01-23.75 433.76-23.75L433.76-23.75Q432.51-23.75 431.36-23.58 430.21-23.4 429.06-23L429.06-23 428.41-17.7Q428.01-17.5 427.31-17.48 426.61-17.45 426.21-17.5L426.21-17.5Q425.76-19.15 425.46-20.8 425.16-22.45 425.21-24L425.21-24Q427.56-25.1 429.94-25.55 432.31-26 435.11-26L435.11-26Q437.91-26 439.64-25.1 441.36-24.2 442.19-22 443.01-19.8 443.01-15.85L443.01-15.85 443.01-2.45Q443.86-2.05 444.76-1.88 445.66-1.7 446.51-1.45L446.51-1.45Q446.66-0.5 446.26 0.3L446.26 0.3Q445.46 0.45 444.34 0.55 443.21 0.65 442.06 0.65L442.06 0.65Q440.41 0.65 439.21 0.35L439.21 0.35 438.51-2.25 438.31-2.25Q437.06-0.95 435.21-0.05 433.36 0.85 430.86 0.85ZM432.76-1.9L432.76-1.9Q434.16-1.9 435.76-2.78 437.36-3.65 438.11-4.75L438.11-4.75 438.11-11.5Q432.96-11.5 430.86-10.28 428.76-9.05 428.76-6L428.76-6Q428.76-3.95 429.86-2.93 430.96-1.9 432.76-1.9ZM457.21 0.8L457.21 0.8Q455.61 0.8 454.31 0.2 453.01-0.4 452.29-1.88 451.56-3.35 451.56-5.95L451.56-5.95 451.56-21.9 448.06-21.9Q447.76-22.45 447.74-23.03 447.71-23.6 447.81-24.15L447.81-24.15Q449.91-24.15 450.96-24.7 452.01-25.25 452.59-26.6 453.16-27.95 453.81-30.25L453.81-30.25 456.46-30.25 456.46-24.65 461.71-24.65Q462.41-23.2 461.71-21.9L461.71-21.9 456.46-21.9 456.46-7.2Q456.46-4.9 456.69-3.73 456.91-2.55 457.46-2.13 458.01-1.7 458.96-1.7L458.96-1.7Q459.76-1.7 460.51-2 461.26-2.3 461.96-2.7L461.96-2.7Q462.66-2.25 462.71-1.2L462.71-1.2Q462.16-0.55 460.71 0.13 459.26 0.8 457.21 0.8ZM470.36-13.5L470.36-12.5Q470.36-7.45 472.38-4.67 474.41-1.9 477.91-1.9L477.91-1.9Q479.46-1.9 480.51-2.08 481.56-2.25 482.58-2.75 483.61-3.25 484.91-4.15L484.91-4.15Q485.71-3.8 485.81-2.95L485.81-2.95Q484.26-1.15 482.11-0.15 479.96 0.85 477.76 0.85L477.76 0.85Q473.96 0.85 471.11-0.75 468.26-2.35 466.66-5.35 465.06-8.35 465.06-12.5L465.06-12.5Q465.06-16.75 466.73-19.73 468.41-22.7 471.23-24.28 474.06-25.85 477.51-25.85L477.51-25.85Q481.96-25.85 484.08-22.88 486.21-19.9 486.21-15.2L486.21-15.2Q486.21-14.85 486.21-14.55 486.21-14.25 486.16-13.9L486.16-13.9 485.46-13.35 470.36-13.5ZM477.46-23.7L477.46-23.7Q476.01-23.7 474.58-22.8 473.16-21.9 472.06-20.1 470.96-18.3 470.56-15.55L470.56-15.55 481.46-16.15Q481.46-20 480.63-21.85 479.81-23.7 477.46-23.7ZM497.96-16.85L497.96-2.5 502.81-1.5Q502.96-0.55 502.56 0.25L502.56 0.25Q501.66 0.2 500.33 0.15 499.01 0.1 497.71 0.05 496.41 0 495.46 0L495.46 0Q494.06 0 492.41 0.08 490.76 0.15 489.36 0.25L489.36 0.25Q489.21-0.7 489.46-1.5L489.46-1.5Q490.41-1.75 491.33-1.95 492.26-2.15 492.96-2.5L492.96-2.5 492.96-22 488.81-22.4Q488.66-23.4 489.06-24.15L489.06-24.15Q490.86-24.4 492.68-24.75 494.51-25.1 496.06-25.5L496.06-25.5Q496.56-25.45 496.88-25.33 497.21-25.2 497.71-24.95L497.71-24.95 497.71-20.4 497.76-20.35Q499.31-22.65 501.23-24.25 503.16-25.85 505.36-25.85L505.36-25.85Q506.21-25.85 507.03-25.73 507.86-25.6 508.66-25.1L508.66-25.1Q508.76-23.05 508.48-21.2 508.21-19.35 507.66-17.6L507.66-17.6Q507.31-17.55 506.56-17.57 505.81-17.6 505.41-17.8L505.41-17.8 504.71-22.8Q502.96-22.8 501.18-21.53 499.41-20.25 497.96-16.85L497.96-16.85ZM519.7-24.95L519.7-2.5 523.05-1.5Q523.2-0.55 522.8 0.25L522.8 0.25Q521.45 0.15 520.03 0.08 518.6 0 517.2 0L517.2 0Q515.8 0 514.15 0.08 512.5 0.15 511.1 0.25L511.1 0.25Q510.95-0.7 511.2-1.5L511.2-1.5Q512.15-1.75 513.08-1.95 514-2.15 514.7-2.5L514.7-2.5 514.7-22 510.55-22.4Q510.4-23.4 510.8-24.15L510.8-24.15Q512.6-24.4 514.43-24.75 516.25-25.1 517.8-25.5L517.8-25.5Q518.3-25.45 518.75-25.33 519.2-25.2 519.7-24.95L519.7-24.95ZM516.35-30.05L516.35-30.05Q515.5-30.05 514.8-30.6 514.1-31.15 513.7-31.95 513.3-32.75 513.3-33.45L513.3-33.45Q513.3-34.1 513.85-34.77 514.4-35.45 515.23-35.93 516.05-36.4 516.85-36.4L516.85-36.4Q517.75-36.4 518.45-35.83 519.15-35.25 519.53-34.48 519.9-33.7 519.9-33L519.9-33Q519.9-32.35 519.38-31.65 518.85-30.95 518.03-30.5 517.2-30.05 516.35-30.05ZM533.75-25.05L533.6-21.65 533.65-21.6Q536.05-24 538.6-24.9 541.15-25.8 543.05-25.8L543.05-25.8Q546.3-25.8 548.18-23.95 550.05-22.1 550.05-18.55L550.05-18.55 550.1-2.5 553.6-1.5Q553.75-0.55 553.35 0.25L553.35 0.25Q552 0.15 550.5 0.08 549 0 547.6 0L547.6 0Q546.2 0 544.65 0.08 543.1 0.15 541.7 0.25L541.7 0.25Q541.55-0.7 541.8-1.5L541.8-1.5Q542.8-1.7 543.58-1.95 544.35-2.2 545.1-2.5L545.1-2.5 545.1-16.3Q545.1-19.7 544.05-21 543-22.3 540.7-22.3L540.7-22.3Q538.85-22.3 537.1-21.58 535.35-20.85 534-19.3L534-19.3 534-2.5 537.35-1.5Q537.5-0.55 537.1 0.25L537.1 0.25Q535.75 0.15 534.33 0.08 532.9 0 531.5 0L531.5 0Q530.1 0 528.45 0.08 526.8 0.15 525.4 0.25L525.4 0.25Q525.25-0.7 525.5-1.5L525.5-1.5Q526.4-1.75 527.3-1.98 528.2-2.2 529-2.5L529-2.5 529-22 524.85-22.4Q524.7-23.4 525.1-24.15L525.1-24.15Q526.95-24.45 528.7-24.8 530.45-25.15 532.05-25.5L532.05-25.5Q532.9-25.45 533.75-25.05L533.75-25.05ZM566.95-8.35L566.95-8.35Q566.05-8.35 565.1-8.47 564.15-8.6 563.15-8.9L563.15-8.9Q562.65-8.15 562.45-7.7 562.25-7.25 562.25-6.95L562.25-6.95Q562.25-6.5 562.6-6.05 562.95-5.6 564.45-5.18 565.95-4.75 569.35-4.35L569.35-4.35Q572.7-3.95 574.95-3.3 577.2-2.65 578.35-1.25 579.5 0.15 579.5 2.75L579.5 2.75Q579.5 5 578.4 6.6 577.3 8.2 575.45 9.25 573.6 10.3 571.4 10.8 569.2 11.3 566.95 11.3L566.95 11.3Q563.15 11.3 560.77 10.4 558.4 9.5 557.27 7.98 556.15 6.45 556.15 4.7L556.15 4.7Q556.15 2.9 557.15 1.13 558.15-0.65 560.85-1.75L560.85-1.75Q559.2-3.2 559.2-5.05L559.2-5.05Q559.2-6.7 559.82-7.78 560.45-8.85 561.25-9.6L561.25-9.6Q559.25-10.6 557.9-12.33 556.55-14.05 556.55-16.65L556.55-16.65Q556.55-19.05 557.5-20.7 558.45-22.35 560-23.35 561.55-24.35 563.37-24.8 565.2-25.25 566.95-25.25L566.95-25.25Q568.15-25.25 569.45-25.05 570.75-24.85 571.95-24.35L571.95-24.35 578.6-28.45Q579-28.25 579.35-27.55 579.7-26.85 579.9-26.08 580.1-25.3 580-24.8L580-24.8Q578.65-24.35 577-23.98 575.35-23.6 573.65-23.5L573.65-23.5Q575.25-22.55 576.3-20.85 577.35-19.15 577.35-16.65L577.35-16.65Q577.35-14.45 576.37-12.88 575.4-11.3 573.8-10.3 572.2-9.3 570.4-8.83 568.6-8.35 566.95-8.35ZM566.95-10.25L566.95-10.25Q569.5-10.25 571.15-12.08 572.8-13.9 572.8-16.75L572.8-16.75Q572.8-19.85 571.15-21.6 569.5-23.35 566.95-23.35L566.95-23.35Q564.4-23.35 562.75-21.6 561.1-19.85 561.1-16.75L561.1-16.75Q561.1-13.9 562.75-12.08 564.4-10.25 566.95-10.25ZM567.7-0.35L567.7-0.35Q566.8-0.5 565.42-0.65 564.05-0.8 562.65-1.15L562.65-1.15Q561.45-0.15 560.82 0.98 560.2 2.1 560.2 4L560.2 4Q560.2 6.1 562 7.75 563.8 9.4 567.2 9.4L567.2 9.4Q569.65 9.4 571.4 8.6 573.15 7.8 574.07 6.55 575 5.3 575 4.05L575 4.05Q575 2.55 573.97 1.7 572.95 0.85 571.27 0.38 569.6-0.1 567.7-0.35Z" opacity="1" transform="matrix(1,0,0,1,0,0)" fill="#000000" class="wordmark-text-0" data-fill-palette-color="primary" id="text-0"></path></svg></g></svg></g><g transform="matrix(1,0,0,1,0,41.46420846919593)"><svg viewBox="0 0 395.52 20.7308295233975" height="20.7308295233975" width="395.52"><g transform="matrix(1,0,0,1,0,0)"><svg width="395.52" viewBox="1.05 -37.8 978.74 51.3" height="20.7308295233975" data-palette-color="#e8772e"><path d="M4.6-2.5L5.35-6.9 7.3-32.5 3.2-33.5 3.45-35.25 9.55-35 12.8-35 12.8-34 20.6-14.55 22.85-8 22.95-8 24.95-14.2 32.85-34 32.85-35 35.85-35 42.7-35.25 42.6-33.5 38.45-32.5 40.65-7.5 41.55-2.4 44.95-1.5 44.7 0.25 38.6 0 31.75 0.25 31.85-1.5 35.45-2.35 35.6-7 35.15-14.5 33.75-29.5 33.5-29.5 31.55-23.4 23.4-2.3 24.2 0 21.8 1 20.85-1.35 11.55-23.55 9.6-29.5 9.4-29.5 8.35-13.35 8.15-6.8 8.25-2.45 11.9-1.45 11.65 0.3 6.4 0 1.05 0.25 1.15-1.5 4.6-2.5ZM70.33-19.8L70.38-9.1 70.73-2.05 74.18-1.55 73.83 0.1 66.88 0.7 66.23-2.25 65.98-2.25 61.03 0.7 55.83 0.7 52.33-1.85 51.28-6.75 53.48-10.65 59.48-13.25 66.08-13.5 65.88-19.75 64.93-22.85 60.88-24 56.03-22.85 55.88-17.55 53.93-17.15 52.63-24 58.38-25.7 64.83-26 68.73-24.1 70.33-19.8ZM56.13-6.85L57.48-2.8 61.23-1.85 66.28-4.75 66.08-11.5 61.73-11.5 57.88-9.95 56.13-6.85ZM89.46-13.8L94.71-19.6 97.01-22.95 93.66-23.5 93.91-25.25 99.16-25 103.76-25.25 103.66-23.5 100.16-22.4 93.01-14.7 97.16-8.85 102.31-2.5 105.26-1.5 105.01 0.25 99.81 0 95.06 0.25 95.16-1.5 97.56-1.65 96.21-4.15 90.41-11.85 87.96-11.85 88.06-8.3 88.16-2.5 91.61-1.5 91.31 0.25 85.76 0 79.36 0.25 79.56-1.5 83.06-2.35 83.21-7.75 83.41-18.7 83.21-29.85 82.96-34.85 79.41-34.7 79.16-36.45 86.06-37.8 88.56-37.25 88.21-30.65 87.91-13.8 89.46-13.8ZM119.93-24.95L119.58-18.15 119.28-13.15 119.43-8.3 119.63-2.5 123.28-1.5 123.03 0.25 117.13 0 111.03 0.25 111.13-1.5 114.43-2.5 114.68-7.75 114.58-17.35 114.33-22.55 110.78-22.4 110.53-24.15 117.43-25.5 119.93-24.95ZM112.88-34.4L114.03-36.25 116.28-37.3 118.58-36.55 119.63-33.95 118.28-31.85 116.03-30.95 113.93-32.25 112.88-34.4ZM154.01-8.3L154.41-2.45 157.96-1.5 157.71 0.25 151.81 0 145.71 0.25 145.81-1.5 149.11-2.5 149.46-7.75 149.26-18.65 147.91-21.95 143.66-22.7 138.21-19.9 138.11-18.15 137.81-13.15 137.91-8.3 138.16-2.5 141.81-1.5 141.56 0.25 135.66 0 129.56 0.25 129.66-1.5 132.96-2.5 133.31-7.75 132.86-22.55 129.31-22.4 129.06-24.15 135.96-25.5 138.46-24.95 138.31-22.4 143.66-25.65 148.76-26 153.36-22.85 154.11-18.85 154.01-8.3ZM180.34-24.5L186.74-28.7 188.34-25.35 186.24-24.05 182.09-23.5 185.59-19.2 185.54-14.35 182.74-10.2 176.64-8.2 171.34-8.95 170.44-7.65 170.24-6.25 171.64-5.35 180.24-4 183.59-3.25 186.94-0.85 187.34 5.1 185.04 8.55 179.44 11.1 171.54 11.35 168.09 10.3 165.24 7.8 164.19 4.2 165.69-0.15 169.09-1.75 167.29-3.45 167.29-6.9 169.54-9.55 165.29-12.85 164.79-19.2 168.94-24 175.29-25.5 180.34-24.5ZM170.59-12.15L173.89-10.35 177.99-10.9 180.64-13.75 181.04-18.65 178.84-22.4 175.19-23.5 170.39-21.5 168.99-17.1 170.59-12.15ZM183.54 2.05L176.59-0.3 170.79-1.1 168.54 1.35 168.24 5.05 170.49 8.3 176.14 9.15 182.09 6.9 183.54 2.05ZM223.94-12.9L215.29-13.45 215.24-13 216.59-5.95 220.54-2.05 225.14-1.55 229.84-4.05 230.74-2.75 226.79 0.4 222.09 1 217.19-0.15 212.94-3.7 210.39-11.2 211.24-17.9 213.84-22.6 219.09-25.5 223.49-26.05 226.99-24.95 229.69-22.5 231.24-18.05 231.29-13.9 230.59-13.35 223.94-12.9ZM221.59-23.8L217.79-21.55 215.84-17.75 215.54-15.5 223.14-15.4 226.59-16.15 226.29-20.8 224.79-23.35 221.59-23.8ZM250.57 1.5L242.42-18.2 240.17-22.6 236.82-23.5 237.07-25.25 243.17-25 249.62-25.25 249.52-23.5 246.37-22.5 247.17-19.6 250.42-11.25 252.42-3.95 252.57-3.95 253.92-9.05 257.87-19.45 258.67-22.65 255.12-23.5 255.37-25.25 259.92-25 265.22-25.25 265.12-23.5 262.02-22.5 259.87-17.9 253.72-1.45 252.22 1.15 250.57 1.5ZM285-12.9L276.35-13.45 276.3-13 277.65-5.95 281.6-2.05 286.2-1.55 290.9-4.05 291.8-2.75 287.85 0.4 283.15 1 278.25-0.15 274-3.7 271.45-11.2 272.3-17.9 274.9-22.6 280.15-25.5 284.55-26.05 288.05-24.95 290.75-22.5 292.3-18.05 292.35-13.9 291.65-13.35 285-12.9ZM282.65-23.8L278.85-21.55 276.9-17.75 276.6-15.5 284.2-15.4 287.65-16.15 287.35-20.8 285.85-23.35 282.65-23.8ZM308.48-24.95L308.28-20.9 308.48-20.9 311.58-24.45 314.98-25.95 318.73-25 317.88-17.55 316.13-17.9 314.88-23.05 311.63-22 308.08-17.85 307.83-13.15 307.98-8.3 308.18-2.5 313.18-1.5 312.93 0.25 305.68 0 299.58 0.25 299.68-1.5 302.98-2.5 303.23-7.75 303.13-17.35 302.88-22.55 299.33-22.4 299.08-24.15 305.98-25.5 308.48-24.95ZM331.96 13L329.46 13.5 327.91 11.25 326.41 7.15 328.31 6.45 331.11 10.6 333.66 8.15 337.16 0.15 329.41-19.7 327.66-22.75 324.11-23.5 324.36-25.25 330.46-25 336.41-25.25 336.31-23.5 333.41-22.65 334.16-19.55 336.86-12.65 339.61-4.6 339.76-4.6 342.26-12.45 344.81-19.6 345.31-22.8 342.51-23.5 342.76-25.25 348.11-25 352.36-25.25 352.26-23.5 349.21-22.6 347.46-18.85 340.01 1.05 335.71 9.3 331.96 13ZM375.91-4.55L374.26-9.5 374.26-16.05 377.21-22 382.86-25.75 389.71-26 395.96-22.25 399.21-16.25 398.61-7.1 394.91-1.2 387.16 1 380.66-0.25 375.91-4.55ZM382.91-23.2L379.76-17.75 379.51-12.15 380.11-6.35 382.26-2.6 387.56-1.3 392.46-3.45 393.91-11.25 393.41-17.75 391.56-21.9 387.91-23.75 382.91-23.2ZM424.94-16.9L424.04-23.15 417.74-23.65 413.24-18.85 411.94-13.65 412.59-8.35 415.79-2.55 421.94-1.55 426.64-4.05 427.54-2.75 423.59 0.4 418.89 1 411.74-1.05 407.29-8.3 407.24-16.65 410.64-22.6 415.89-25.35 420.44-26 428.09-25 426.59-17.15 424.94-16.9ZM453.17-16.9L452.27-23.15 445.97-23.65 441.47-18.85 440.17-13.65 440.82-8.35 444.02-2.55 450.17-1.55 454.87-4.05 455.77-2.75 451.82 0.4 447.12 1 439.97-1.05 435.52-8.3 435.47-16.65 438.87-22.6 444.12-25.35 448.67-26 456.32-25 454.82-17.15 453.17-16.9ZM481.99-19.8L482.04-9.1 482.39-2.05 485.84-1.55 485.49 0.1 478.54 0.7 477.89-2.25 477.64-2.25 472.69 0.7 467.49 0.7 463.99-1.85 462.94-6.75 465.14-10.65 471.14-13.25 477.74-13.5 477.54-19.75 476.59-22.85 472.54-24 467.69-22.85 467.54-17.55 465.59-17.15 464.29-24 470.04-25.7 476.49-26 480.39-24.1 481.99-19.8ZM467.79-6.85L469.14-2.8 472.89-1.85 477.94-4.75 477.74-11.5 473.39-11.5 469.54-9.95 467.79-6.85ZM495.37-7.5L495.77-1.95 499.92-1.3 504.57-1.95 505.67-5.35 504.32-7.95 495.02-13.6 493.02-16.75 492.92-22.05 496.47-25.05 501.72-26 509.07-24.5 508.02-17.15 505.92-17.85 504.97-23.05 501.52-23.7 497.77-22.85 496.82-20.1 498.02-17.15 507.62-11.65 509.97-8.7 510.17-4 506.77 0 500.77 1 496.62 0.8 491.97-1 493.22-8.2 495.37-7.5ZM526.35-24.95L526-18.15 525.7-13.15 525.85-8.3 526.05-2.5 529.7-1.5 529.45 0.25 523.55 0 517.45 0.25 517.55-1.5 520.85-2.5 521.1-7.75 521-17.35 520.75-22.55 517.2-22.4 516.95-24.15 523.85-25.5 526.35-24.95ZM519.3-34.4L520.45-36.25 522.7-37.3 525-36.55 526.05-33.95 524.7-31.85 522.45-30.95 520.35-32.25 519.3-34.4ZM538.18-4.55L536.53-9.5 536.53-16.05 539.48-22 545.13-25.75 551.98-26 558.23-22.25 561.48-16.25 560.88-7.1 557.18-1.2 549.43 1 542.93-0.25 538.18-4.55ZM545.18-23.2L542.03-17.75 541.78-12.15 542.38-6.35 544.53-2.6 549.83-1.3 554.73-3.45 556.18-11.25 555.68-17.75 553.83-21.9 550.18-23.75 545.18-23.2ZM593.26-8.3L593.66-2.45 597.21-1.5 596.96 0.25 591.06 0 584.96 0.25 585.06-1.5 588.36-2.5 588.71-7.75 588.51-18.65 587.16-21.95 582.91-22.7 577.46-19.9 577.36-18.15 577.06-13.15 577.16-8.3 577.41-2.5 581.06-1.5 580.81 0.25 574.91 0 568.81 0.25 568.91-1.5 572.21-2.5 572.56-7.75 572.11-22.55 568.56-22.4 568.31-24.15 575.21-25.5 577.71-24.95 577.56-22.4 582.91-25.65 588.01-26 592.61-22.85 593.36-18.85 593.26-8.3ZM633.06-12.9L624.41-13.45 624.36-13 625.71-5.95 629.66-2.05 634.26-1.55 638.96-4.05 639.86-2.75 635.91 0.4 631.21 1 626.31-0.15 622.06-3.7 619.51-11.2 620.36-17.9 622.96-22.6 628.21-25.5 632.61-26.05 636.11-24.95 638.81-22.5 640.36-18.05 640.41-13.9 639.71-13.35 633.06-12.9ZM630.71-23.8L626.91-21.55 624.96-17.75 624.66-15.5 632.26-15.4 635.71-16.15 635.41-20.8 633.91-23.35 630.71-23.8ZM650.49-2.5L657.84-11.65 652.29-19.8 649.94-22.65 646.59-23.5 646.84-25.25 652.94-25 659.39-25.25 659.29-23.5 655.94-22.7 656.74-20.8 660.59-14.95 660.79-14.95 662.49-17.45 664.94-20.5 666.14-22.65 662.59-23.5 662.84-25.25 668.29-25 673.54-25.25 673.44-23.5 670.34-22.65 667.99-20.25 662.34-13.25 669.74-2.5 673.09-1.5 672.84 0.25 667.24 0 661.14 0.25 661.24-1.5 663.84-2.3 662.64-4.85 660.19-8.25 659.14-9.8 658.99-9.8 655.54-4.8 654.04-2.35 657.04-1.5 656.79 0.25 651.89 0 646.79 0.25 646.89-1.5 650.49-2.5ZM693.62-1.2L690.82 0.5 687.42 1 683.87-0.2 682.27-4.2 682.52-13.5 682.27-21.9 678.82-22.4 678.52-24.15 682.47-25.2 684.27-30.25 686.82-30.25 686.67-24.65 692.72-24.45 692.42-22.25 687.17-21.9 686.97-19.6 687.17-4.45 688.17-1.45 692.87-2.7 693.62-1.2ZM708.24-24.95L708.04-20.9 708.24-20.9 711.34-24.45 714.74-25.95 718.49-25 717.64-17.55 715.89-17.9 714.64-23.05 711.39-22 707.84-17.85 707.59-13.15 707.74-8.3 707.94-2.5 712.94-1.5 712.69 0.25 705.44 0 699.34 0.25 699.44-1.5 702.74-2.5 702.99-7.75 702.89-17.35 702.64-22.55 699.09-22.4 698.84-24.15 705.74-25.5 708.24-24.95ZM743.92-19.8L743.97-9.1 744.32-2.05 747.77-1.55 747.42 0.1 740.47 0.7 739.82-2.25 739.57-2.25 734.62 0.7 729.42 0.7 725.92-1.85 724.87-6.75 727.07-10.65 733.07-13.25 739.67-13.5 739.47-19.75 738.52-22.85 734.47-24 729.62-22.85 729.47-17.55 727.52-17.15 726.22-24 731.97-25.7 738.42-26 742.32-24.1 743.92-19.8ZM729.72-6.85L731.07-2.8 734.82-1.85 739.87-4.75 739.67-11.5 735.32-11.5 731.47-9.95 729.72-6.85ZM755.95-4.55L754.3-9.5 754.3-16.05 757.25-22 762.9-25.75 769.75-26 776-22.25 779.25-16.25 778.65-7.1 774.95-1.2 767.2 1 760.7-0.25 755.95-4.55ZM762.95-23.2L759.8-17.75 759.55-12.15 760.15-6.35 762.3-2.6 767.6-1.3 772.5-3.45 773.95-11.25 773.45-17.75 771.6-21.9 767.95-23.75 762.95-23.2ZM795.48-24.95L795.28-20.9 795.48-20.9 798.58-24.45 801.98-25.95 805.73-25 804.88-17.55 803.13-17.9 801.88-23.05 798.63-22 795.08-17.85 794.83-13.15 794.98-8.3 795.18-2.5 800.18-1.5 799.93 0.25 792.68 0 786.58 0.25 786.68-1.5 789.98-2.5 790.23-7.75 790.13-17.35 789.88-22.55 786.33-22.4 786.08-24.15 792.98-25.5 795.48-24.95ZM831.86 0.7L830.91-2.25 830.66-2.25 825.11 1 819.56 0.4 815.91-2.2 813.01-8.15 812.96-16.65 814.86-20.6 820.61-25.25 826.16-26 831.01-24.75 830.71-34.3 826.56-34.7 826.81-36.45 833.71-37.8 835.71-37.25 835.36-17.9 835.71-2.05 839.16-1.55 838.81 0.1 831.86 0.7ZM819.26-4.6L823.56-1.55 830.91-4.35 831.01-22 825.46-23.75 822.31-22.85 818.46-18.75 817.76-13 819.26-4.6ZM854.38-24.95L854.03-18.15 853.73-13.15 853.88-8.3 854.08-2.5 857.73-1.5 857.48 0.25 851.58 0 845.48 0.25 845.58-1.5 848.88-2.5 849.13-7.75 849.03-17.35 848.78-22.55 845.23-22.4 844.98-24.15 851.88-25.5 854.38-24.95ZM847.33-34.4L848.48-36.25 850.73-37.3 853.03-36.55 854.08-33.95 852.73-31.85 850.48-30.95 848.38-32.25 847.33-34.4ZM888.46-8.3L888.86-2.45 892.41-1.5 892.16 0.25 886.26 0 880.16 0.25 880.26-1.5 883.56-2.5 883.91-7.75 883.71-18.65 882.36-21.95 878.11-22.7 872.66-19.9 872.56-18.15 872.26-13.15 872.36-8.3 872.61-2.5 876.26-1.5 876.01 0.25 870.11 0 864.01 0.25 864.11-1.5 867.41-2.5 867.76-7.75 867.31-22.55 863.76-22.4 863.51-24.15 870.41-25.5 872.91-24.95 872.76-22.4 878.11-25.65 883.21-26 887.81-22.85 888.56-18.85 888.46-8.3ZM917.19-19.8L917.24-9.1 917.59-2.05 921.04-1.55 920.69 0.1 913.74 0.7 913.09-2.25 912.84-2.25 907.89 0.7 902.69 0.7 899.19-1.85 898.14-6.75 900.34-10.65 906.34-13.25 912.94-13.5 912.74-19.75 911.79-22.85 907.74-24 902.89-22.85 902.74-17.55 900.79-17.15 899.49-24 905.24-25.7 911.69-26 915.59-24.1 917.19-19.8ZM902.99-6.85L904.34-2.8 908.09-1.85 913.14-4.75 912.94-11.5 908.59-11.5 904.74-9.95 902.99-6.85ZM935.92-24.95L935.72-20.9 935.92-20.9 939.02-24.45 942.42-25.95 946.17-25 945.32-17.55 943.57-17.9 942.32-23.05 939.07-22 935.52-17.85 935.27-13.15 935.42-8.3 935.62-2.5 940.62-1.5 940.37 0.25 933.12 0 927.02 0.25 927.12-1.5 930.42-2.5 930.67-7.75 930.57-17.35 930.32-22.55 926.77-22.4 926.52-24.15 933.42-25.5 935.92-24.95ZM959.39 13L956.89 13.5 955.34 11.25 953.84 7.15 955.74 6.45 958.54 10.6 961.09 8.15 964.59 0.15 956.84-19.7 955.09-22.75 951.54-23.5 951.79-25.25 957.89-25 963.84-25.25 963.74-23.5 960.84-22.65 961.59-19.55 964.29-12.65 967.04-4.6 967.19-4.6 969.69-12.45 972.24-19.6 972.74-22.8 969.94-23.5 970.19-25.25 975.54-25 979.79-25.25 979.69-23.5 976.64-22.6 974.89-18.85 967.44 1.05 963.14 9.3 959.39 13Z" opacity="1" transform="matrix(1,0,0,1,0,0)" fill="#000000" class="slogan-text-1" data-fill-palette-color="secondary" id="text-1"></path></svg></g></svg></g></svg></g></svg></g><g transform="matrix(1,0,0,1,85.24917627139848,0)"><svg viewBox="0 0 225.02164745720302 225.02164745720302" height="225.02164745720302" width="225.02164745720302"><g><svg viewBox="0 0 225.02164745720302 225.02164745720302" height="225.02164745720302" width="225.02164745720302"><g transform="matrix(1,0,0,1,68.74531911667371,59.47271278501588)"><svg viewBox="0 0 87.53100922385559 106.07622188717126" height="106.07622188717126" width="87.53100922385559"><g><svg xmlns="http://www.w3.org/2000/svg" xmlns:xlink="http://www.w3.org/1999/xlink" version="1.1" x="0" y="0" viewBox="12.866019642534596 4.999333333333334 74.26600303333417 90.00075614677442" enable-background="new 0 0 100 100" xml:space="preserve" height="106.07622188717126" width="87.53100922385559" class="icon-dxe-0" data-fill-palette-color="accent" id="dxe-0"><path d="M74.708 77.352C74.584 77.352 59.25 89.615 59.198 89.755 59.136 89.918 63.193 94.964 63.415 95 63.516 95.018 66.984 92.318 71.129 88.993S78.727 82.855 78.802 82.74C78.903 82.588 78.356 81.801 76.868 79.941 75.729 78.52 74.756 77.352 74.708 77.352" fill="#000000" data-fill-palette-color="accent"></path><path d="M86.824 47.667C86.515 47.358 86.303 47.358 50.003 47.358 40.928 47.358 34.109 47.353 28.98 47.358 13.592 47.373 13.413 47.435 13.181 47.667 12.904 47.944 12.872 48.195 12.872 49.929 12.872 52.7 12.497 52.48 17.686 52.48H19.164L21.552 54.509C22.956 55.935 26.887 59.174 33.422 64.287 37.275 67.301 37.716 67.696 37.886 68.257 38.675 70.857 41.025 75.814 42.535 78.069 43.85 80.036 44.859 81.001 46.999 82.327 50.377 84.423 58.119 88.098 59.033 88.046 59.148 88.04 62.323 85.608 66.066 82.636 69.812 79.663 72.966 77.14 73.082 77.021 73.256 76.841 73.204 76.174 72.773 72.99 71.911 66.607 71.717 64.558 71.806 62.765 71.904 60.773 72.216 59.544 73.472 56.369 73.994 55.045 74.451 53.628 74.499 53.223L74.603 52.483H86.453L86.803 52.132C87.112 51.803 87.132 51.6 87.132 49.869 87.133 48.182 87.102 47.944 86.824 47.667M34.39 56.779A225 225 0 0 0 29.803 53.939L27.396 52.48H33.34L33.69 52.871C33.892 53.086 34.347 53.447 34.698 53.652 35.46 54.097 35.973 54.96 36.55 56.798 36.772 57.508 36.962 58.173 36.962 58.259 36.961 58.445 37.121 58.533 34.39 56.779M46.527 52.83C46.474 53.021 46.289 54.302 46.115 55.669 45.76 58.477 45.574 59.667 45.313 60.791L45.128 61.572 44.922 60.791A27 27 0 0 0 44.305 58.939C43.723 57.377 42.548 54.909 41.795 53.671 41.438 53.086 41.157 52.574 41.157 52.54 41.157 52.507 42.387 52.478 43.893 52.478H46.629zM69.318 53.035C68.46 53.769 67.513 55.22 67.117 56.409 66.937 56.945 66.709 58.165 66.624 59.103 66.159 64.222 65.057 68.423 63.725 70.169 63.27 70.765 61.376 71.749 59.959 72.123 58.796 72.433 56.488 72.433 55.434 72.123 53.69 71.614 51.917 70.185 50.766 68.358L50.148 67.371 50.395 65.17C50.777 61.756 51.223 56.655 51.341 54.474L51.465 52.48H69.956z" fill="#000000" data-fill-palette-color="accent"></path><path d="M16.553 45.411C18.786 45.379 22.554 45.365 28.98 45.358 34.109 45.353 40.928 45.358 50.003 45.358 71.448 45.358 80.295 45.358 84.01 45.422 84.634 45.281 84.869 45.106 84.952 44.889 85.738 42.842 83.661 33.993 81.269 29.214 79.974 26.625 77.775 23.196 76.394 21.582 72.754 17.331 65.98 13.079 60.062 11.338 57.23 10.505 54.898 9.433 54.898 8.972 54.898 7.276 52.335 5.002 50.435 5.002 50.343 5.002 50.261 4.996 50.168 5.002 49.736 5.002 49.272 5.109 48.81 5.311 47.324 5.876 46.048 7.117 45.807 8.355A2 2 0 0 0 45.704 8.972C45.704 9.297 44.539 9.925 42.865 10.556 31.553 14.85 24.552 18.918 19.332 29.214 16.941 33.992 14.864 42.841 15.65 44.889 15.731 45.1 15.961 45.271 16.553 45.411M46.218 12.162L46.712 13.89C32.006 19.459 25.248 23.393 20.628 41.619A34 34 0 0 1 18.242 41.495C21.377 26.299 28.808 16.616 46.218 12.162" fill="#000000" data-fill-palette-color="accent"></path></svg></g></svg></g><g id="text-0"><path d="M6.15 68.97l7.583 2.591c1.212 0.414 2.168 0.867 2.869 1.36 0.696 0.484 1.188 1.025 1.475 1.622 0.29 0.591 0.408 1.243 0.353 1.955-0.055 0.712-0.228 1.493-0.518 2.342v0c-0.31 0.907-0.667 1.687-1.07 2.338-0.403 0.651-0.899 1.148-1.486 1.49-0.581 0.344-1.292 0.51-2.135 0.497-0.838-0.004-1.844-0.206-3.016-0.607v0l-7.787-2.66-0.94 1.416c-0.266-0.047-0.492-0.161-0.677-0.34v0c0.139-0.365 0.298-0.767 0.477-1.205 0.187-0.443 0.345-0.852 0.474-1.228v0c0.133-0.389 0.276-0.861 0.43-1.416 0.158-0.547 0.294-1.01 0.409-1.391v0c0.273 0.05 0.505 0.143 0.697 0.281v0c-0.054 0.285-0.097 0.571-0.13 0.857-0.041 0.29-0.046 0.589-0.013 0.897v0l8.39 2.866c1.445 0.494 2.618 0.504 3.518 0.029 0.9-0.474 1.574-1.366 2.021-2.675v0c0.303-0.888 0.371-1.636 0.202-2.243-0.169-0.608-0.492-1.113-0.97-1.515-0.469-0.406-1.022-0.747-1.659-1.023-0.637-0.275-1.273-0.522-1.908-0.738v0l-6.97-2.382-0.94 1.416c-0.266-0.047-0.492-0.161-0.677-0.339v0c0.139-0.365 0.275-0.699 0.407-1.001 0.141-0.306 0.277-0.651 0.408-1.033v0c0.133-0.389 0.241-0.757 0.323-1.106 0.089-0.346 0.192-0.709 0.307-1.089v0c0.273 0.05 0.505 0.143 0.696 0.281v0c-0.059 0.342-0.104 0.655-0.137 0.941-0.041 0.29-0.043 0.561-0.006 0.812z" fill="#000000" data-fill-palette-color="accent"></path><path d="M12.958 62.081l1.23 0.77 0.033-0.017c-0.281-0.902-0.365-1.714-0.252-2.436 0.107-0.725 0.285-1.311 0.536-1.759v0c0.341-0.61 0.764-1.052 1.27-1.327 0.503-0.268 1.057-0.347 1.662-0.236v0c-0.297-0.872-0.411-1.63-0.342-2.274 0.067-0.653 0.245-1.24 0.536-1.76v0c0.451-0.807 1.037-1.315 1.757-1.525 0.721-0.209 1.524-0.067 2.409 0.428v0l6.001 3.328 1.109-1.099c0.253 0.094 0.452 0.244 0.595 0.451v0c-0.214 0.327-0.434 0.672-0.659 1.032-0.225 0.361-0.436 0.717-0.633 1.07v0c-0.194 0.347-0.388 0.717-0.584 1.109-0.199 0.399-0.384 0.778-0.554 1.139v0c-0.253-0.094-0.462-0.227-0.625-0.397v0c0.086-0.281 0.153-0.534 0.2-0.759 0.041-0.228 0.078-0.455 0.109-0.68v0l-5.148-2.876c-0.849-0.474-1.501-0.67-1.955-0.586-0.458 0.089-0.847 0.421-1.168 0.995v0c-0.154 0.275-0.244 0.648-0.272 1.119-0.022 0.474 0.08 1.029 0.306 1.665v0l0.152 0.085 6.001 3.329 1.108-1.099c0.253 0.094 0.45 0.247 0.591 0.459v0c-0.211 0.321-0.429 0.663-0.654 1.024-0.228 0.367-0.439 0.723-0.633 1.07v0c-0.194 0.347-0.39 0.72-0.589 1.118-0.196 0.393-0.379 0.769-0.549 1.129v0c-0.257-0.088-0.465-0.221-0.625-0.396v0c0.083-0.275 0.15-0.528 0.2-0.759 0.041-0.228 0.078-0.455 0.109-0.68v0l-5.148-2.876c-0.849-0.474-1.509-0.67-1.978-0.587-0.467 0.077-0.86 0.402-1.181 0.976v0c-0.167 0.299-0.273 0.699-0.317 1.2-0.048 0.507 0.001 1.087 0.146 1.74v0l6.269 3.502 1.073-1.036c0.257 0.088 0.455 0.239 0.596 0.45v0c-0.211 0.321-0.424 0.654-0.639 0.996-0.218 0.349-0.424 0.697-0.618 1.044v0c-0.194 0.347-0.397 0.731-0.609 1.154-0.209 0.417-0.4 0.808-0.574 1.174v0c-0.253-0.094-0.462-0.227-0.626-0.397v0c0.061-0.264 0.127-0.522 0.197-0.773 0.067-0.261 0.12-0.51 0.158-0.747v0l-7.274-4.062-1.019 1.466c-0.271-0.104-0.471-0.259-0.599-0.464v0c0.185-0.5 0.355-0.994 0.509-1.481 0.157-0.477 0.302-0.941 0.436-1.392v0c0.129-0.203 0.304-0.383 0.526-0.542z" fill="#000000" data-fill-palette-color="accent"></path><path d="M32.514 51.155v0c-0.526 0.676-1.143 1.107-1.852 1.293-0.718 0.187-1.437 0.002-2.156-0.557v0c-0.562-0.437-0.915-0.932-1.057-1.486-0.148-0.557-0.136-1.147 0.035-1.768 0.162-0.621 0.433-1.243 0.814-1.867 0.375-0.628 0.802-1.237 1.279-1.829v0l-1.472-1.17c-0.619-0.498-1.198-0.758-1.737-0.778-0.534-0.016-0.997 0.227-1.387 0.73v0c-0.219 0.281-0.41 0.566-0.574 0.855-0.164 0.289-0.301 0.599-0.411 0.93v0l1.622 1.612c-0.028 0.126-0.101 0.269-0.217 0.43-0.117 0.161-0.216 0.283-0.298 0.367v0c-0.449-0.193-0.884-0.397-1.307-0.613-0.423-0.225-0.807-0.48-1.15-0.764v0c0.169-0.719 0.408-1.383 0.717-1.993 0.314-0.615 0.716-1.239 1.208-1.871v0c0.488-0.627 0.986-1.055 1.494-1.285 0.503-0.234 1.074-0.249 1.715-0.046 0.635 0.199 1.396 0.643 2.282 1.332v0l4.526 3.519c0.243-0.123 0.462-0.27 0.655-0.441 0.198-0.176 0.4-0.336 0.606-0.478v0c0.236 0.132 0.41 0.31 0.521 0.535v0c-0.105 0.213-0.244 0.453-0.416 0.718-0.176 0.271-0.365 0.536-0.566 0.796v0c-0.29 0.373-0.573 0.67-0.848 0.889v0l-1.067-0.452-0.05 0.065c0.073 0.508 0.051 1.05-0.068 1.626-0.124 0.572-0.404 1.139-0.841 1.701zM32.088 49.796v0c0.244-0.314 0.409-0.727 0.496-1.241 0.077-0.512 0.059-0.952-0.055-1.318v0l-2.279-1.772c-0.904 1.162-1.401 2.086-1.491 2.77-0.094 0.69 0.202 1.302 0.889 1.837v0c0.465 0.362 0.908 0.506 1.328 0.434 0.426-0.068 0.796-0.305 1.112-0.71z" fill="#000000" data-fill-palette-color="accent"></path><path d="M45.686 29.401l-2.982-9.056-0.269-0.325 0.989-0.819c0.316-0.262 0.683-0.588 1.099-0.977 0.42-0.384 0.782-0.71 1.084-0.978v0c0.206 0.185 0.355 0.386 0.447 0.604v0c-0.208 0.243-0.403 0.48-0.585 0.711-0.181 0.221-0.335 0.46-0.461 0.715v0l9.003 9.191 1.541-0.716c0.207 0.175 0.338 0.387 0.392 0.635v0c-0.313 0.224-0.66 0.48-1.042 0.77-0.382 0.29-0.726 0.562-1.032 0.815v0c-0.306 0.253-0.674 0.572-1.104 0.955-0.435 0.387-0.797 0.718-1.085 0.993v0c-0.202-0.179-0.349-0.378-0.441-0.596v0c0.203-0.248 0.408-0.485 0.614-0.709 0.201-0.22 0.345-0.459 0.432-0.718v0l-6.667-6.63c-0.137-0.144-0.274-0.293-0.411-0.447-0.132-0.149-0.261-0.299-0.388-0.452v0c-0.101-0.121-0.205-0.248-0.314-0.38-0.109-0.132-0.207-0.26-0.293-0.385v0l-0.047 0.04c0.148 0.34 0.298 0.682 0.451 1.027 0.147 0.349 0.283 0.712 0.408 1.089v0l3.26 9.987c-0.115 0.291-0.269 0.507-0.463 0.65v0l-9.607-4.994c-0.31-0.17-0.623-0.36-0.939-0.569-0.321-0.205-0.653-0.424-0.997-0.655v0l-0.047 0.039 1.355 1.732 5.56 7.547 1.541-0.716c0.202 0.179 0.333 0.391 0.393 0.635v0c-0.313 0.224-0.615 0.438-0.907 0.645-0.292 0.206-0.593 0.438-0.905 0.696v0c-0.306 0.253-0.592 0.504-0.858 0.751-0.266 0.247-0.544 0.508-0.832 0.783v0c-0.207-0.175-0.354-0.374-0.44-0.596v0c0.186-0.216 0.365-0.44 0.537-0.672 0.173-0.232 0.329-0.473 0.469-0.722v0l-7.524-10.416-1.541 0.716c-0.202-0.179-0.333-0.396-0.391-0.649v0c0.304-0.234 0.647-0.491 1.028-0.772 0.391-0.28 0.739-0.546 1.045-0.8v0l1.076-0.891 0.269 0.324 8.345 4.613c0.422 0.22 0.802 0.447 1.139 0.683 0.347 0.237 0.701 0.491 1.06 0.763v0l0.031-0.026c-0.204-0.418-0.387-0.827-0.549-1.226-0.158-0.394-0.307-0.8-0.447-1.217z" fill="#000000" data-fill-palette-color="accent"></path><path d="M60.18 26.154v0c-0.736 0.437-1.468 0.613-2.196 0.528-0.737-0.088-1.339-0.523-1.804-1.306v0c-0.364-0.612-0.511-1.202-0.442-1.769 0.066-0.573 0.292-1.118 0.679-1.634 0.377-0.519 0.856-0.999 1.438-1.441 0.579-0.447 1.198-0.859 1.859-1.236v0l-0.943-1.626c-0.394-0.69-0.839-1.143-1.333-1.359-0.491-0.21-1.011-0.152-1.558 0.173v0c-0.306 0.182-0.588 0.377-0.847 0.587-0.258 0.209-0.499 0.448-0.722 0.716v0l0.922 2.093c-0.072 0.107-0.192 0.214-0.359 0.321-0.167 0.107-0.304 0.185-0.412 0.232v0c-0.347-0.343-0.678-0.692-0.993-1.047-0.312-0.364-0.576-0.741-0.791-1.131v0c0.42-0.608 0.885-1.139 1.395-1.594 0.516-0.458 1.119-0.892 1.808-1.301v0c0.683-0.406 1.303-0.623 1.86-0.651 0.553-0.034 1.091 0.16 1.613 0.583 0.519 0.417 1.065 1.108 1.638 2.073v0l2.929 4.928c0.271-0.026 0.528-0.083 0.77-0.171 0.248-0.092 0.495-0.166 0.74-0.224v0c0.172 0.209 0.268 0.438 0.289 0.688v0c-0.176 0.16-0.392 0.333-0.649 0.517-0.263 0.188-0.535 0.366-0.818 0.534v0c-0.406 0.241-0.778 0.414-1.114 0.519v0l-0.828-0.81-0.07 0.042c-0.117 0.5-0.336 0.996-0.657 1.489-0.324 0.487-0.792 0.913-1.404 1.277zM60.279 24.732v0c0.341-0.203 0.646-0.528 0.915-0.974 0.259-0.449 0.402-0.865 0.43-1.247v0l-1.475-2.482c-1.266 0.752-2.066 1.431-2.399 2.036-0.34 0.608-0.287 1.286 0.157 2.034v0c0.301 0.506 0.66 0.803 1.078 0.889 0.421 0.092 0.853 0.007 1.294-0.256z" fill="#000000" data-fill-palette-color="accent"></path><path d="M63.922 5.812l2.558 5.877 0.094-0.041c0.358-0.791 0.765-1.416 1.223-1.876 0.46-0.469 0.91-0.8 1.35-0.991v0c1.074-0.467 1.979-0.525 2.714-0.174 0.733 0.346 1.299 0.977 1.699 1.894v0l2.677 6.151 1.585-0.219c0.144 0.229 0.208 0.47 0.192 0.723v0c-0.363 0.128-0.749 0.27-1.159 0.426-0.416 0.159-0.807 0.318-1.171 0.476v0c-0.364 0.159-0.759 0.342-1.184 0.549-0.425 0.207-0.814 0.403-1.168 0.587v0c-0.144-0.229-0.23-0.46-0.257-0.695v0c0.214-0.16 0.425-0.319 0.633-0.477 0.214-0.16 0.404-0.333 0.57-0.517v0l-2.551-5.859c-0.238-0.546-0.504-0.927-0.799-1.142-0.295-0.215-0.609-0.31-0.942-0.285-0.33 0.032-0.671 0.124-1.022 0.277v0c-0.414 0.18-0.803 0.473-1.165 0.877-0.362 0.404-0.62 0.841-0.774 1.312v0l2.92 6.706 1.491-0.178c0.144 0.229 0.208 0.47 0.192 0.723v0c-0.363 0.128-0.733 0.263-1.112 0.406-0.385 0.145-0.76 0.297-1.124 0.455v0c-0.364 0.159-0.759 0.342-1.184 0.549-0.419 0.205-0.808 0.4-1.168 0.587v0c-0.144-0.229-0.227-0.461-0.248-0.699v0c0.215-0.176 0.434-0.342 0.657-0.499 0.217-0.154 0.396-0.318 0.537-0.491v0l-5.425-12.462-1.699 0.549c-0.15-0.241-0.215-0.485-0.196-0.732v0c0.879-0.554 1.685-1.114 2.417-1.68v0c0.137-0.045 0.269-0.076 0.396-0.094 0.136-0.014 0.283-0.019 0.443-0.013z" fill="#000000" data-fill-palette-color="accent"></path><path d="M80.447 10.226l0.124 0.413c0.414 1.377 1.01 2.361 1.787 2.949 0.78 0.595 1.648 0.749 2.606 0.461v0c0.42-0.126 0.767-0.256 1.042-0.388 0.273-0.139 0.527-0.316 0.763-0.529 0.241-0.222 0.501-0.512 0.78-0.868v0c0.246 0.033 0.417 0.161 0.512 0.383v0c-0.272 0.618-0.662 1.154-1.169 1.606-0.503 0.444-1.056 0.757-1.66 0.939v0c-1.036 0.311-2.007 0.367-2.911 0.166-0.913-0.205-1.708-0.652-2.387-1.342-0.684-0.681-1.196-1.589-1.537-2.724v0c-0.349-1.161-0.416-2.217-0.202-3.168 0.208-0.949 0.635-1.753 1.282-2.413 0.637-0.663 1.428-1.137 2.372-1.421v0c1.213-0.365 2.234-0.228 3.063 0.41 0.822 0.64 1.426 1.603 1.811 2.889v0c0.028 0.092 0.054 0.18 0.08 0.265 0.024 0.079 0.044 0.169 0.06 0.272v0l-0.217 0.312zM82.096 5.182v0c-0.394 0.118-0.751 0.358-1.072 0.719-0.312 0.366-0.545 0.84-0.699 1.422-0.154 0.583-0.171 1.264-0.051 2.043v0l4.383-1.586c-0.315-1.049-0.66-1.793-1.035-2.231-0.375-0.438-0.884-0.56-1.526-0.367z" fill="#000000" data-fill-palette-color="accent"></path><path d="M91.689 9.931l0.627 2.182c0.316 0.087 0.631 0.133 0.946 0.136 0.313-0.003 0.658-0.039 1.035-0.109v0c0.572-0.107 1.06-0.331 1.463-0.671 0.404-0.333 0.554-0.78 0.45-1.338v0c-0.055-0.296-0.187-0.554-0.395-0.773-0.209-0.226-0.541-0.432-0.994-0.619-0.448-0.195-1.073-0.392-1.876-0.59v0c-0.885-0.225-1.596-0.545-2.134-0.96-0.544-0.414-0.899-1.062-1.064-1.943v0c-0.133-0.714-0.06-1.309 0.22-1.787 0.279-0.484 0.684-0.87 1.215-1.157 0.538-0.289 1.12-0.492 1.747-0.609v0c0.545-0.102 1.101-0.15 1.666-0.144 0.559 0.007 1.064 0.062 1.515 0.166v0c0.013 0.067 0.03 0.141 0.052 0.22 0.023 0.086 0.041 0.163 0.053 0.231v0c0.16 0.855 0.18 1.687 0.06 2.497v0c-0.058 0.025-0.11 0.045-0.156 0.06-0.046 0.016-0.099 0.029-0.16 0.041v0c-0.209 0.039-0.426 0.034-0.651-0.014v0l-0.756-2.2c-0.193-0.027-0.414-0.034-0.662-0.023-0.242 0.01-0.481 0.038-0.717 0.082v0c-0.323 0.06-0.635 0.164-0.935 0.311-0.299 0.153-0.529 0.357-0.69 0.61-0.162 0.253-0.205 0.578-0.131 0.975v0c0.049 0.263 0.154 0.504 0.313 0.725 0.165 0.213 0.45 0.414 0.855 0.604 0.406 0.196 0.998 0.402 1.777 0.618v0c1.224 0.322 2.108 0.689 2.652 1.104 0.551 0.413 0.896 0.989 1.034 1.729v0c0.133 0.714 0.054 1.331-0.239 1.853-0.294 0.515-0.728 0.934-1.301 1.257-0.566 0.329-1.192 0.557-1.879 0.686v0c-0.66 0.123-1.282 0.184-1.868 0.182-0.592-0.001-1.207-0.123-1.845-0.366v0l-0.066-0.353c-0.07-0.377-0.119-0.769-0.146-1.175-0.022-0.414 0.002-0.864 0.071-1.351v0c0.078-0.029 0.144-0.048 0.198-0.058v0c0.256-0.048 0.494-0.058 0.716-0.029z" fill="#000000" data-fill-palette-color="accent"></path><path d="M111.8 11.914l-2.976-7.613-2.384 7.507c-0.094 0.058-0.249 0.125-0.465 0.202-0.224 0.07-0.397 0.107-0.521 0.111v0l-4.296-10.044-1.658-0.372c-0.057-0.265-0.032-0.516 0.075-0.753v0c0.384 0 0.816 0.008 1.297 0.025 0.48 0.01 0.919 0.008 1.315-0.006v0c0.411-0.015 0.862-0.045 1.354-0.089 0.492-0.052 0.936-0.092 1.332-0.12v0c0.051 0.272 0.046 0.523-0.014 0.751v0c-0.258 0.064-0.516 0.135-0.774 0.213-0.265 0.071-0.494 0.162-0.689 0.271v0l1.741 4.409c0.188 0.473 0.371 0.97 0.547 1.492 0.176 0.521 0.331 1.023 0.465 1.505v0l0.061-0.002c0.112-0.504 0.231-1.016 0.357-1.535 0.132-0.519 0.269-1 0.41-1.443v0l1.235-3.704-0.33-0.883-1.658-0.372c-0.051-0.265-0.025-0.517 0.076-0.753v0c0.391 0 0.812 0.009 1.265 0.027 0.46 0.011 0.888 0.009 1.285-0.005v0c0.411-0.015 0.824-0.043 1.241-0.086 0.409-0.049 0.812-0.087 1.209-0.115v0c0.058 0.272 0.053 0.522-0.014 0.751v0c-0.251 0.064-0.513 0.131-0.785 0.203-0.265 0.064-0.488 0.158-0.668 0.281v0l1.594 4.599c0.176 0.521 0.352 1.029 0.527 1.523 0.175 0.494 0.334 0.995 0.475 1.505v0l0.072-0.003c0.092-0.49 0.201-0.977 0.328-1.461 0.127-0.477 0.26-0.962 0.4-1.453v0l1.337-4.88-1.658-0.372c-0.051-0.265-0.022-0.517 0.086-0.754v0c0.384 0 0.737 0.011 1.06 0.034 0.316 0.016 0.676 0.017 1.079 0.003v0c0.411-0.015 0.79-0.042 1.139-0.082 0.348-0.047 0.72-0.084 1.116-0.112v0c0.051 0.272 0.046 0.523-0.014 0.751v0c-0.265 0.064-0.53 0.132-0.795 0.203-0.258 0.064-0.495 0.158-0.709 0.283v0l-3.064 10.029c-0.094 0.058-0.252 0.129-0.476 0.213-0.23 0.077-0.407 0.117-0.53 0.121z" fill="#000000" data-fill-palette-color="accent"></path><path d="M122.01 11.892v0c-0.851-0.091-1.543-0.389-2.074-0.893-0.538-0.512-0.758-1.221-0.661-2.127v0c0.076-0.708 0.311-1.269 0.706-1.681 0.396-0.419 0.903-0.72 1.522-0.901 0.613-0.189 1.284-0.286 2.015-0.291 0.731-0.011 1.474 0.03 2.229 0.124v0l0.22-1.867c0.098-0.788 0.014-1.417-0.253-1.887-0.267-0.463-0.718-0.728-1.351-0.795v0c-0.354-0.038-0.697-0.05-1.029-0.038-0.332 0.013-0.668 0.059-1.007 0.141v0l-0.517 2.228c-0.122 0.042-0.281 0.056-0.48 0.041-0.198-0.014-0.354-0.034-0.468-0.06v0c-0.072-0.483-0.128-0.961-0.167-1.433-0.031-0.479-0.017-0.939 0.044-1.38v0c0.7-0.235 1.391-0.382 2.072-0.44 0.688-0.057 1.43-0.043 2.227 0.042v0c0.79 0.084 1.416 0.282 1.879 0.594 0.463 0.304 0.777 0.782 0.942 1.433 0.165 0.644 0.188 1.525 0.069 2.642v0l-0.61 5.7c0.233 0.142 0.473 0.25 0.72 0.325 0.254 0.075 0.496 0.163 0.726 0.263v0c0.012 0.27-0.048 0.511-0.181 0.725v0c-0.237 0.023-0.513 0.031-0.829 0.025-0.323-0.007-0.648-0.028-0.975-0.063v0c-0.47-0.05-0.871-0.134-1.203-0.252v0l-0.177-1.146-0.081-0.008c-0.393 0.33-0.866 0.596-1.419 0.799-0.551 0.196-1.181 0.256-1.889 0.18zM122.942 10.814v0c0.395 0.042 0.834-0.035 1.316-0.232 0.476-0.204 0.84-0.451 1.091-0.74v0l0.307-2.871c-1.464-0.157-2.511-0.093-3.14 0.191-0.636 0.283-1.001 0.857-1.094 1.723v0c-0.063 0.586 0.047 1.038 0.33 1.357 0.282 0.326 0.678 0.517 1.19 0.572z" fill="#000000" data-fill-palette-color="accent"></path><path d="M135.507 6.336l-1.304 5.993 1.936 0.863c-0.017 0.27-0.103 0.503-0.258 0.701v0c-0.251-0.069-0.56-0.15-0.925-0.243-0.365-0.093-0.727-0.186-1.085-0.279-0.358-0.092-0.672-0.167-0.939-0.225v0c-0.388-0.084-0.815-0.167-1.282-0.247-0.459-0.079-0.889-0.148-1.29-0.208v0c0.017-0.27 0.082-0.508 0.198-0.714v0c0.284-0.015 0.559-0.022 0.824-0.02 0.273 0.003 0.517-0.024 0.733-0.082v0l1.772-8.141-1.7-0.549c0.021-0.29 0.111-0.526 0.27-0.709v0c0.516 0.042 1.04 0.069 1.57 0.079 0.529 0.017 1.02 0.015 1.474-0.005v0c0.138 0.044 0.246 0.092 0.326 0.145 0.086 0.054 0.192 0.133 0.316 0.237v0l-0.413 1.897 0.016 0.024c0.567-0.543 1.166-0.98 1.799-1.311 0.633-0.332 1.257-0.431 1.873-0.297v0c0.234 0.051 0.464 0.122 0.69 0.213 0.22 0.083 0.426 0.219 0.615 0.407v0c-0.097 0.575-0.238 1.112-0.424 1.611-0.186 0.499-0.409 0.976-0.669 1.432v0c-0.103-0.008-0.258-0.039-0.464-0.091-0.206-0.052-0.359-0.12-0.46-0.205v0l0.164-2.151c-0.489-0.106-1.019-0.036-1.592 0.211-0.572 0.247-1.163 0.802-1.771 1.664z" fill="#000000" data-fill-palette-color="accent"></path><path d="M143.033 16.191v0c-0.812-0.27-1.425-0.708-1.837-1.314-0.416-0.615-0.481-1.354-0.194-2.219v0c0.225-0.676 0.574-1.173 1.048-1.492 0.476-0.325 1.036-0.511 1.679-0.557 0.639-0.055 1.316-0.007 2.031 0.144 0.717 0.144 1.434 0.343 2.151 0.595v0l0.612-1.777c0.263-0.75 0.315-1.382 0.154-1.898-0.163-0.509-0.547-0.864-1.151-1.064v0c-0.338-0.112-0.671-0.197-0.997-0.256-0.327-0.058-0.665-0.084-1.014-0.077v0l-0.979 2.068c-0.128 0.015-0.287-0.005-0.478-0.062-0.191-0.056-0.339-0.109-0.445-0.158v0c0.032-0.487 0.079-0.966 0.141-1.436 0.071-0.474 0.183-0.921 0.337-1.339v0c0.734-0.081 1.44-0.077 2.118 0.011 0.684 0.09 1.407 0.262 2.168 0.514v0c0.754 0.25 1.324 0.577 1.709 0.979 0.388 0.396 0.593 0.93 0.616 1.601 0.025 0.665-0.14 1.53-0.494 2.596v0l-1.808 5.441c0.197 0.188 0.409 0.345 0.634 0.47 0.232 0.128 0.45 0.265 0.654 0.412v0c-0.045 0.266-0.155 0.49-0.331 0.669v0c-0.236-0.028-0.508-0.079-0.816-0.151-0.314-0.075-0.627-0.165-0.939-0.269v0c-0.448-0.149-0.822-0.316-1.121-0.502v0l0.07-1.157-0.078-0.026c-0.455 0.239-0.973 0.398-1.555 0.479-0.58 0.074-1.209-0.001-1.885-0.225zM144.173 15.335v0c0.377 0.125 0.822 0.143 1.335 0.054 0.509-0.098 0.917-0.262 1.224-0.492v0l0.91-2.739c-1.397-0.464-2.434-0.625-3.109-0.481-0.682 0.141-1.16 0.625-1.435 1.45v0c-0.186 0.559-0.174 1.025 0.034 1.397 0.206 0.379 0.553 0.649 1.041 0.811z" fill="#000000" data-fill-palette-color="accent"></path><path d="M168.305 24.992v0c0.132 0.144 0.194 0.285 0.188 0.422-0.009 0.144-0.043 0.289-0.102 0.437v0c-0.894 0.255-1.79 0.336-2.687 0.245-0.897-0.092-1.756-0.366-2.576-0.823v0c-0.832-0.463-1.554-1.045-2.167-1.746-0.613-0.702-1.063-1.505-1.351-2.41-0.291-0.899-0.369-1.879-0.234-2.94 0.133-1.055 0.532-2.181 1.198-3.378v0c0.659-1.185 1.423-2.1 2.292-2.745 0.878-0.648 1.795-1.078 2.752-1.29 0.953-0.206 1.897-0.233 2.832-0.082 0.935 0.152 1.788 0.442 2.56 0.872v0c0.91 0.506 1.663 1.019 2.259 1.54 0.602 0.523 1.075 1.061 1.419 1.612v0c-0.292 0.582-0.638 1.091-1.038 1.527-0.396 0.43-0.813 0.833-1.249 1.209v0c-0.126-0.055-0.261-0.13-0.404-0.224-0.143-0.095-0.262-0.205-0.358-0.329v0l1.132-2.521c-0.316-0.403-0.647-0.732-0.991-0.986-0.347-0.264-0.742-0.519-1.185-0.765v0c-0.874-0.486-1.804-0.659-2.791-0.519-0.978 0.138-1.914 0.545-2.809 1.223-0.889 0.681-1.641 1.575-2.257 2.682v0c-0.649 1.167-1.055 2.29-1.216 3.368-0.161 1.078-0.051 2.049 0.331 2.912 0.388 0.866 1.066 1.569 2.036 2.109v0c0.772 0.43 1.526 0.673 2.262 0.73 0.74 0.051 1.457 0.008 2.154-0.13z" fill="#000000" data-fill-palette-color="accent"></path><path d="M171.485 30.581v0c-0.687-0.511-1.131-1.119-1.333-1.823-0.203-0.714-0.033-1.437 0.511-2.168v0c0.425-0.572 0.913-0.935 1.462-1.088 0.554-0.16 1.144-0.161 1.769-0.004 0.624 0.148 1.252 0.406 1.884 0.773 0.636 0.362 1.254 0.775 1.856 1.24v0l1.138-1.497c0.485-0.629 0.732-1.214 0.741-1.753 0.005-0.534-0.249-0.991-0.76-1.372v0c-0.286-0.212-0.575-0.398-0.867-0.555-0.292-0.158-0.605-0.288-0.939-0.391v0l-1.577 1.657c-0.126-0.026-0.271-0.095-0.434-0.208-0.163-0.113-0.288-0.21-0.373-0.29v0c0.183-0.453 0.378-0.893 0.584-1.32 0.216-0.428 0.462-0.817 0.739-1.166v0c0.723 0.153 1.392 0.378 2.008 0.674 0.622 0.3 1.254 0.689 1.897 1.168v0c0.638 0.474 1.077 0.963 1.317 1.465 0.244 0.498 0.272 1.069 0.083 1.714-0.185 0.639-0.613 1.409-1.283 2.31v0l-3.42 4.6c0.128 0.241 0.28 0.456 0.454 0.646 0.18 0.194 0.344 0.392 0.492 0.596v0c-0.126 0.239-0.301 0.416-0.524 0.532v0c-0.215-0.1-0.458-0.234-0.727-0.4-0.275-0.17-0.544-0.353-0.807-0.549v0c-0.379-0.282-0.682-0.558-0.908-0.829v0l0.429-1.076-0.066-0.049c-0.506 0.084-1.049 0.073-1.627-0.032-0.574-0.111-1.147-0.379-1.719-0.805zM172.835 30.126v0c0.319 0.237 0.736 0.394 1.251 0.469 0.514 0.066 0.953 0.039 1.317-0.083v0l1.722-2.317c-1.182-0.879-2.116-1.356-2.802-1.431-0.692-0.079-1.298 0.23-1.817 0.928v0c-0.351 0.473-0.487 0.918-0.405 1.337 0.077 0.424 0.322 0.79 0.734 1.097z" fill="#000000" data-fill-palette-color="accent"></path><path d="M180.924 38.234v0c-0.335-0.304-0.581-0.644-0.74-1.019-0.159-0.375-0.176-0.789-0.052-1.242 0.129-0.447 0.444-0.947 0.946-1.5v0l4.579-5.041-1.102-1.002c0.04-0.176 0.113-0.328 0.218-0.454 0.105-0.126 0.221-0.239 0.347-0.337v0c0.446 0.405 0.831 0.649 1.155 0.73 0.329 0.086 0.683 0.042 1.063-0.131 0.38-0.173 0.859-0.441 1.438-0.804v0l0.836 0.76-1.609 1.772 1.665 1.513c-0.134 0.443-0.399 0.734-0.794 0.874v0l-1.665-1.512-4.221 4.646c-0.442 0.487-0.753 0.875-0.933 1.165-0.175 0.294-0.246 0.54-0.211 0.737 0.038 0.192 0.156 0.378 0.354 0.558v0c0.167 0.152 0.36 0.271 0.577 0.358 0.217 0.077 0.436 0.141 0.656 0.193v0c0.064 0.225 0 0.453-0.192 0.686v0c-0.241 0.031-0.578-0.021-1.011-0.155-0.433-0.134-0.868-0.399-1.304-0.795z" fill="#000000" data-fill-palette-color="accent"></path><path d="M190.064 38.762l-0.318 0.291c-1.06 0.972-1.686 1.936-1.878 2.893-0.197 0.961 0.043 1.81 0.719 2.547v0c0.296 0.323 0.564 0.579 0.802 0.769 0.244 0.185 0.514 0.337 0.809 0.457 0.305 0.12 0.678 0.228 1.121 0.324v0c0.077 0.236 0.036 0.445-0.122 0.628v0c-0.675 0.024-1.327-0.094-1.955-0.354-0.619-0.259-1.141-0.621-1.567-1.086v0c-0.731-0.798-1.204-1.647-1.417-2.548-0.213-0.911-0.156-1.822 0.17-2.734 0.316-0.912 0.91-1.769 1.783-2.569v0c0.893-0.819 1.815-1.339 2.765-1.56 0.945-0.226 1.855-0.191 2.73 0.104 0.875 0.285 1.645 0.791 2.312 1.518v0c0.856 0.934 1.177 1.912 0.963 2.935-0.219 1.018-0.823 1.981-1.812 2.888v0c-0.071 0.065-0.139 0.127-0.204 0.188-0.061 0.056-0.133 0.113-0.219 0.172v0l-0.375-0.06zM195.322 38.051v0c-0.278-0.303-0.649-0.52-1.113-0.651-0.465-0.122-0.993-0.125-1.585-0.011-0.592 0.115-1.212 0.396-1.861 0.843v0l3.334 3.256c0.808-0.741 1.327-1.375 1.559-1.903 0.231-0.528 0.12-1.039-0.334-1.534z" fill="#000000" data-fill-palette-color="accent"></path><path d="M199.709 48.136l-4.951 3.62 0.876 1.93c-0.191 0.191-0.411 0.309-0.658 0.353v0c-0.143-0.218-0.319-0.483-0.53-0.795-0.211-0.312-0.42-0.622-0.628-0.929-0.207-0.307-0.392-0.571-0.553-0.791v0c-0.234-0.321-0.499-0.666-0.795-1.036-0.291-0.364-0.567-0.701-0.828-1.01v0c0.191-0.191 0.399-0.325 0.621-0.404v0c0.222 0.177 0.433 0.354 0.631 0.532 0.202 0.183 0.403 0.325 0.603 0.425v0l6.726-4.917-0.908-1.538c0.208-0.203 0.432-0.32 0.672-0.351v0c0.358 0.374 0.733 0.741 1.123 1.101 0.385 0.364 0.753 0.688 1.106 0.973v0c0.074 0.124 0.123 0.232 0.148 0.324 0.029 0.098 0.055 0.227 0.08 0.387v0l-1.568 1.146-0.004 0.029c0.784-0.03 1.523 0.041 2.216 0.212 0.694 0.172 1.227 0.512 1.599 1.021v0c0.141 0.194 0.266 0.399 0.374 0.616 0.11 0.208 0.173 0.446 0.191 0.714v0c-0.454 0.366-0.916 0.674-1.386 0.924-0.47 0.25-0.954 0.46-1.451 0.627v0c-0.072-0.075-0.167-0.2-0.287-0.375-0.12-0.175-0.189-0.328-0.208-0.459v0l1.55-1.502c-0.295-0.404-0.739-0.703-1.331-0.897-0.592-0.195-1.402-0.171-2.43 0.07z" fill="#000000" data-fill-palette-color="accent"></path><path d="M208.706 55.428l-8.202 4.978 0.377 1.454c-0.207 0.174-0.437 0.269-0.691 0.287v0c-0.176-0.342-0.359-0.691-0.551-1.047-0.192-0.356-0.393-0.707-0.603-1.053v0c-0.206-0.34-0.441-0.706-0.703-1.099-0.259-0.387-0.504-0.744-0.733-1.069v0c0.203-0.18 0.421-0.296 0.653-0.349v0c0.203 0.189 0.397 0.384 0.583 0.584 0.182 0.194 0.368 0.349 0.559 0.466v0l7.122-4.323-0.767-1.601c0.221-0.19 0.452-0.291 0.694-0.302v0c0.325 0.404 0.667 0.801 1.025 1.193 0.352 0.395 0.692 0.75 1.018 1.064v0c0.063 0.13 0.113 0.26 0.152 0.389 0.038 0.129 0.061 0.272 0.067 0.428zM209.827 53.077v0c-0.124-0.205-0.171-0.433-0.139-0.685 0.028-0.257 0.11-0.492 0.247-0.702 0.139-0.22 0.293-0.382 0.462-0.485v0c0.158-0.096 0.36-0.126 0.606-0.091 0.246 0.035 0.487 0.117 0.725 0.244 0.241 0.134 0.421 0.297 0.539 0.491v0c0.131 0.217 0.178 0.452 0.141 0.708-0.034 0.261-0.118 0.492-0.252 0.693-0.136 0.211-0.289 0.368-0.46 0.471v0c-0.158 0.096-0.361 0.131-0.609 0.106-0.248-0.026-0.488-0.104-0.72-0.236-0.236-0.137-0.416-0.309-0.54-0.514z" fill="#000000" data-fill-palette-color="accent"></path><path d="M212.432 62.542l-1.341 0.553-0.006 0.036c0.909 0.321 1.634 0.759 2.176 1.314 0.545 0.546 0.933 1.063 1.164 1.552v0c0.394 0.836 0.467 1.608 0.218 2.317-0.249 0.708-0.832 1.278-1.748 1.711v0l-6.198 2.946 0.249 1.541c-0.224 0.151-0.463 0.222-0.717 0.213v0c-0.139-0.359-0.29-0.734-0.452-1.127-0.166-0.399-0.333-0.778-0.502-1.137v0c-0.169-0.359-0.358-0.736-0.567-1.13-0.206-0.388-0.407-0.758-0.605-1.112v0c0.224-0.151 0.454-0.241 0.691-0.269v0c0.176 0.228 0.343 0.429 0.501 0.604 0.162 0.166 0.325 0.328 0.49 0.484v0l5.333-2.515c0.88-0.415 1.422-0.838 1.628-1.268 0.209-0.424 0.173-0.934-0.107-1.528v0c-0.225-0.477-0.537-0.898-0.936-1.263-0.399-0.365-0.882-0.625-1.448-0.782v0l-6.495 3.064 0.219 1.475c-0.221 0.157-0.459 0.232-0.713 0.223v0c-0.139-0.359-0.285-0.725-0.439-1.099-0.157-0.38-0.32-0.75-0.489-1.11v0c-0.169-0.359-0.364-0.748-0.585-1.167-0.217-0.412-0.424-0.796-0.621-1.149v0c0.224-0.151 0.453-0.244 0.686-0.278v0c0.179 0.203 0.351 0.406 0.515 0.609 0.173 0.206 0.345 0.394 0.515 0.563v0l7.536-3.554-0.601-1.682c0.243-0.16 0.485-0.232 0.727-0.218v0c0.299 0.442 0.602 0.867 0.908 1.275 0.297 0.405 0.59 0.793 0.879 1.165v0c0.09 0.223 0.135 0.47 0.135 0.743z" fill="#000000" data-fill-palette-color="accent"></path><path d="M211.807 79.842v0c-0.081-0.247-0.143-0.504-0.187-0.772-0.052-0.271-0.084-0.556-0.096-0.855v0c-0.244-0.064-0.438-0.106-0.581-0.123-0.134-0.014-0.244-0.007-0.328 0.02v0c-0.124 0.04-0.228 0.129-0.313 0.265-0.094 0.132-0.133 0.422-0.116 0.87 0.021 0.44 0.126 1.137 0.315 2.091v0c0.187 0.948 0.291 1.753 0.314 2.415 0.024 0.669-0.102 1.222-0.377 1.658-0.276 0.436-0.765 0.769-1.469 0.998v0c-0.612 0.2-1.185 0.221-1.718 0.065-0.527-0.159-1.016-0.443-1.467-0.851-0.45-0.408-0.837-0.887-1.161-1.436-0.332-0.554-0.597-1.134-0.795-1.74v0c-0.338-1.035-0.491-1.911-0.458-2.628 0.037-0.725 0.21-1.308 0.521-1.748 0.317-0.442 0.709-0.74 1.178-0.892v0c0.488-0.159 1.018-0.181 1.589-0.065 0.569 0.11 1.123 0.483 1.663 1.121v0c0.244-0.577 0.617-0.947 1.118-1.111v0c0.449-0.147 0.848-0.183 1.196-0.11 0.342 0.076 0.649 0.188 0.92 0.337v0c0.097-0.63 0.32-1.203 0.67-1.721 0.35-0.518 0.876-0.891 1.58-1.12v0c0.651-0.213 1.239-0.264 1.765-0.155 0.534 0.114 1.006 0.334 1.415 0.661 0.405 0.336 0.75 0.731 1.036 1.186 0.285 0.454 0.506 0.919 0.661 1.394v0c0.106 0.326 0.188 0.674 0.244 1.045 0.063 0.369 0.079 0.738 0.048 1.108v0l2.55 2.15c-0.022 0.13-0.112 0.274-0.269 0.433-0.159 0.153-0.334 0.289-0.525 0.41-0.189 0.127-0.356 0.199-0.502 0.218v0c-0.245-0.331-0.488-0.701-0.731-1.113-0.251-0.415-0.465-0.85-0.642-1.303v0c-0.118 0.521-0.358 1-0.72 1.435-0.371 0.431-0.895 0.757-1.572 0.978v0c-0.599 0.196-1.153 0.232-1.66 0.11-0.517-0.127-0.979-0.361-1.387-0.704-0.416-0.347-0.769-0.743-1.058-1.189-0.29-0.446-0.507-0.89-0.651-1.332zM212.588 79.586v0c0.225 0.69 0.654 1.177 1.287 1.46 0.641 0.288 1.35 0.305 2.125 0.052v0c0.84-0.274 1.424-0.714 1.752-1.318 0.331-0.598 0.383-1.242 0.158-1.932v0c-0.225-0.69-0.649-1.182-1.271-1.476-0.622-0.294-1.353-0.304-2.192-0.03v0c-0.775 0.253-1.336 0.685-1.685 1.296-0.342 0.609-0.4 1.258-0.174 1.948zM208.663 81.203v0c-0.042-0.26-0.104-0.582-0.185-0.966-0.082-0.384-0.136-0.781-0.162-1.19v0c-0.38-0.236-0.75-0.389-1.112-0.458-0.355-0.071-0.789-0.023-1.303 0.144v0c-0.573 0.187-1.001 0.597-1.284 1.23-0.29 0.635-0.285 1.411 0.015 2.33v0c0.217 0.664 0.51 1.199 0.88 1.604 0.37 0.405 0.765 0.676 1.184 0.812 0.421 0.143 0.801 0.16 1.14 0.05v0c0.41-0.134 0.683-0.378 0.82-0.733 0.143-0.356 0.203-0.78 0.18-1.269-0.019-0.498-0.076-1.016-0.173-1.554z" fill="#000000" data-fill-palette-color="accent"></path><path d="M22.122 150.11l-7.582 2.591c-1.212 0.414-2.246 0.64-3.101 0.679-0.847 0.043-1.567-0.084-2.16-0.38-0.591-0.29-1.083-0.734-1.475-1.331-0.392-0.597-0.733-1.32-1.023-2.169v0c-0.31-0.907-0.505-1.742-0.584-2.504-0.079-0.762 0.009-1.458 0.264-2.087 0.249-0.628 0.71-1.194 1.384-1.7 0.665-0.51 1.585-0.965 2.758-1.366v0l7.787-2.66-0.123-1.695c0.239-0.125 0.487-0.174 0.742-0.145v0c0.113 0.374 0.233 0.789 0.361 1.245 0.123 0.465 0.248 0.885 0.376 1.261v0c0.133 0.389 0.308 0.85 0.527 1.383 0.21 0.529 0.385 0.979 0.527 1.351v0c-0.246 0.127-0.487 0.195-0.723 0.204v0c-0.132-0.259-0.272-0.511-0.422-0.757-0.145-0.254-0.324-0.494-0.538-0.718v0l-8.39 2.866c-1.445 0.494-2.379 1.203-2.801 2.13-0.422 0.926-0.409 2.043 0.038 3.352v0c0.303 0.888 0.708 1.521 1.213 1.898 0.505 0.377 1.07 0.579 1.694 0.605 0.62 0.034 1.266-0.034 1.938-0.206 0.672-0.172 1.326-0.366 1.961-0.583v0l6.971-2.382-0.123-1.695c0.239-0.125 0.487-0.174 0.742-0.145v0c0.113 0.374 0.21 0.721 0.291 1.041 0.076 0.329 0.179 0.684 0.31 1.066v0c0.133 0.389 0.273 0.746 0.42 1.073 0.141 0.328 0.282 0.678 0.424 1.049v0c-0.246 0.127-0.487 0.195-0.723 0.204v0c-0.163-0.306-0.318-0.582-0.467-0.829-0.145-0.254-0.309-0.47-0.492-0.646z" fill="#000000" data-fill-palette-color="accent"></path><path d="M22.133 157.331l-1.3 0.644-0.003 0.037c0.915 0.234 1.65 0.588 2.206 1.062 0.561 0.471 0.967 0.931 1.217 1.379v0c0.341 0.61 0.495 1.202 0.463 1.777-0.035 0.569-0.259 1.082-0.67 1.54v0c0.899 0.204 1.604 0.505 2.116 0.901 0.521 0.399 0.927 0.859 1.217 1.379v0c0.451 0.807 0.576 1.573 0.377 2.296-0.2 0.724-0.742 1.332-1.627 1.827v0l-5.982 3.364 0.355 1.52c-0.213 0.166-0.445 0.256-0.696 0.271v0c-0.166-0.354-0.344-0.722-0.533-1.102-0.189-0.381-0.382-0.747-0.579-1.1v0c-0.194-0.347-0.406-0.707-0.639-1.08-0.235-0.379-0.461-0.735-0.678-1.068v0c0.213-0.166 0.435-0.274 0.665-0.325v0c0.194 0.221 0.374 0.411 0.541 0.569 0.173 0.155 0.347 0.305 0.522 0.45v0l5.149-2.876c0.849-0.474 1.357-0.927 1.524-1.357 0.164-0.437 0.086-0.942-0.235-1.516v0c-0.154-0.275-0.424-0.548-0.81-0.819-0.392-0.267-0.918-0.472-1.578-0.613v0l-0.152 0.085-5.982 3.365 0.355 1.52c-0.213 0.166-0.447 0.253-0.701 0.262v0c-0.163-0.348-0.339-0.713-0.528-1.094-0.192-0.387-0.386-0.753-0.579-1.1v0c-0.194-0.347-0.408-0.71-0.644-1.088-0.232-0.373-0.456-0.726-0.674-1.059v0c0.21-0.172 0.432-0.28 0.666-0.325v0c0.191 0.215 0.371 0.405 0.541 0.568 0.173 0.155 0.347 0.305 0.522 0.45v0l5.148-2.875c0.849-0.474 1.362-0.933 1.538-1.377 0.179-0.437 0.109-0.943-0.212-1.517v0c-0.167-0.299-0.452-0.599-0.855-0.899-0.406-0.306-0.926-0.569-1.559-0.789v0l-6.269 3.502 0.32 1.457c-0.21 0.172-0.442 0.262-0.696 0.271v0c-0.163-0.348-0.334-0.704-0.514-1.067-0.182-0.369-0.371-0.727-0.564-1.073v0c-0.194-0.347-0.415-0.721-0.663-1.124-0.245-0.397-0.478-0.765-0.699-1.104v0c0.213-0.166 0.435-0.274 0.666-0.325v0c0.193 0.19 0.378 0.381 0.555 0.573 0.187 0.194 0.371 0.369 0.553 0.526v0l7.274-4.063-0.714-1.636c0.231-0.176 0.468-0.265 0.709-0.267v0c0.329 0.42 0.66 0.824 0.994 1.21 0.324 0.384 0.643 0.751 0.957 1.101v0c0.105 0.216 0.167 0.46 0.185 0.732z" fill="#000000" data-fill-palette-color="accent"></path><path d="M23.341 180.515v0c-0.526-0.676-0.791-1.38-0.797-2.113-0.005-0.742 0.352-1.393 1.072-1.953v0c0.562-0.437 1.129-0.657 1.7-0.658 0.577-0.006 1.145 0.151 1.705 0.469 0.562 0.309 1.098 0.725 1.609 1.249 0.516 0.518 1.002 1.082 1.457 1.69v0l1.497-1.138c0.636-0.477 1.03-0.974 1.182-1.492 0.147-0.514 0.025-1.022-0.365-1.524v0c-0.219-0.281-0.448-0.537-0.688-0.767-0.24-0.23-0.506-0.439-0.8-0.627v0l-1.962 1.174c-0.115-0.058-0.236-0.164-0.363-0.316-0.127-0.153-0.221-0.279-0.282-0.379v0c0.297-0.387 0.603-0.759 0.915-1.116 0.323-0.355 0.664-0.664 1.024-0.926v0c0.655 0.341 1.24 0.736 1.755 1.186 0.519 0.455 1.024 0.999 1.516 1.632v0c0.488 0.627 0.78 1.215 0.877 1.764 0.103 0.545-0.023 1.103-0.377 1.673-0.349 0.566-0.967 1.194-1.854 1.884v0l-4.525 3.519c0.059 0.266 0.148 0.514 0.266 0.744 0.122 0.235 0.227 0.47 0.314 0.705v0c-0.186 0.196-0.401 0.321-0.647 0.373v0c-0.181-0.154-0.379-0.348-0.594-0.579-0.219-0.237-0.43-0.486-0.631-0.746v0c-0.29-0.373-0.508-0.72-0.653-1.04v0l0.701-0.923-0.051-0.065c-0.511-0.054-1.03-0.209-1.559-0.466-0.524-0.261-1.004-0.672-1.442-1.234zM24.764 180.436v0c0.244 0.314 0.604 0.576 1.08 0.787 0.478 0.201 0.908 0.292 1.291 0.271v0l2.279-1.772c-0.904-1.162-1.677-1.872-2.318-2.127-0.646-0.261-1.312-0.125-1.998 0.409v0c-0.465 0.362-0.714 0.755-0.748 1.18-0.039 0.429 0.099 0.847 0.414 1.252z" fill="#000000" data-fill-palette-color="accent"></path><path d="M45.954 194.812l8.345-4.613 0.269-0.324 0.988 0.819c0.316 0.262 0.704 0.561 1.164 0.898 0.455 0.342 0.843 0.636 1.163 0.883v0c-0.143 0.237-0.313 0.421-0.51 0.552v0c-0.278-0.159-0.547-0.306-0.808-0.443-0.251-0.137-0.514-0.244-0.788-0.32v0l-7.358 10.554 0.991 1.381c-0.134 0.236-0.317 0.404-0.551 0.504v0c-0.278-0.266-0.595-0.56-0.951-0.881-0.356-0.322-0.687-0.609-0.993-0.863v0c-0.306-0.253-0.687-0.556-1.143-0.907-0.461-0.356-0.854-0.65-1.177-0.882v0c0.139-0.232 0.307-0.413 0.503-0.543v0c0.282 0.154 0.552 0.311 0.811 0.471 0.253 0.156 0.515 0.253 0.786 0.291v0l5.275-7.783c0.116-0.162 0.237-0.324 0.363-0.486 0.121-0.157 0.246-0.312 0.372-0.466v0c0.101-0.121 0.205-0.248 0.315-0.379 0.109-0.132 0.217-0.251 0.324-0.359v0l-0.048-0.04c-0.306 0.209-0.615 0.42-0.925 0.634-0.316 0.21-0.647 0.411-0.995 0.604v0l-9.207 5.059c-0.307-0.059-0.549-0.17-0.725-0.334v0l3.122-10.368c0.11-0.336 0.238-0.679 0.385-1.029 0.142-0.354 0.295-0.721 0.458-1.1v0l-0.047-0.04-1.45 1.654-6.383 6.865 0.99 1.381c-0.139 0.232-0.322 0.4-0.551 0.504v0c-0.278-0.266-0.545-0.523-0.801-0.771-0.257-0.248-0.541-0.501-0.852-0.759v0c-0.306-0.253-0.605-0.488-0.898-0.704-0.293-0.216-0.601-0.44-0.924-0.672v0c0.134-0.236 0.301-0.417 0.504-0.543v0c0.247 0.142 0.5 0.277 0.76 0.403 0.26 0.126 0.525 0.235 0.796 0.326v0l8.837-9.328-0.99-1.381c0.139-0.232 0.327-0.4 0.565-0.505v0c0.287 0.255 0.603 0.544 0.95 0.866 0.347 0.332 0.674 0.625 0.979 0.879v0l1.076 0.891-0.268 0.325-2.982 9.056c-0.137 0.455-0.29 0.871-0.459 1.247-0.168 0.385-0.353 0.78-0.554 1.183v0l0.032 0.026c0.373-0.278 0.74-0.534 1.103-0.767 0.358-0.228 0.729-0.45 1.112-0.666z" fill="#000000" data-fill-palette-color="accent"></path><path d="M54.244 208.372v0c-0.736-0.437-1.24-0.996-1.514-1.676-0.275-0.689-0.18-1.426 0.285-2.209v0c0.364-0.612 0.811-1.024 1.343-1.233 0.535-0.216 1.121-0.278 1.759-0.186 0.636 0.083 1.287 0.275 1.953 0.575 0.67 0.294 1.328 0.642 1.974 1.042v0l0.978-1.606c0.418-0.676 0.603-1.283 0.556-1.82-0.05-0.532-0.349-0.96-0.897-1.286v0c-0.306-0.182-0.613-0.336-0.919-0.463-0.307-0.127-0.632-0.224-0.974-0.292v0l-1.399 1.81c-0.128-0.012-0.279-0.066-0.453-0.162-0.174-0.096-0.308-0.179-0.401-0.25v0c0.135-0.469 0.284-0.927 0.445-1.373 0.171-0.448 0.376-0.86 0.615-1.236v0c0.734 0.078 1.423 0.232 2.067 0.464 0.649 0.235 1.318 0.556 2.007 0.965v0c0.683 0.406 1.17 0.847 1.461 1.323 0.294 0.47 0.381 1.035 0.259 1.695-0.118 0.655-0.464 1.465-1.038 2.431v0l-2.928 4.928c0.152 0.226 0.325 0.424 0.518 0.595 0.199 0.174 0.383 0.355 0.551 0.542v0c-0.101 0.251-0.257 0.445-0.467 0.583v0c-0.225-0.078-0.479-0.185-0.764-0.322-0.291-0.141-0.577-0.295-0.86-0.464v0c-0.406-0.241-0.736-0.485-0.988-0.73v0l0.316-1.115-0.07-0.042c-0.495 0.136-1.036 0.181-1.622 0.135-0.583-0.052-1.18-0.259-1.793-0.623zM55.54 207.78v0c0.341 0.203 0.772 0.316 1.293 0.338 0.518 0.013 0.952-0.06 1.301-0.218v0l1.475-2.482c-1.266-0.752-2.244-1.13-2.935-1.135-0.697-0.008-1.267 0.362-1.712 1.11v0c-0.301 0.506-0.389 0.964-0.265 1.372 0.12 0.414 0.401 0.752 0.843 1.015z" fill="#000000" data-fill-palette-color="accent"></path><path d="M72.282 199.52l-2.559 5.877 0.095 0.041c0.823-0.277 1.558-0.405 2.206-0.384 0.657 0.017 1.206 0.122 1.645 0.313v0c1.074 0.467 1.733 1.09 1.977 1.869 0.247 0.772 0.17 1.617-0.229 2.533v0l-2.678 6.151 1.241 1.011c-0.069 0.261-0.202 0.472-0.399 0.633v0c-0.341-0.178-0.708-0.364-1.102-0.558-0.4-0.197-0.782-0.374-1.146-0.532v0c-0.364-0.159-0.767-0.323-1.208-0.493-0.441-0.17-0.85-0.321-1.225-0.455v0c0.069-0.261 0.18-0.482 0.332-0.662v0c0.263 0.047 0.523 0.093 0.781 0.138 0.263 0.047 0.519 0.069 0.767 0.065v0l2.55-5.858c0.238-0.546 0.335-1.001 0.291-1.364-0.044-0.363-0.188-0.657-0.433-0.883-0.248-0.22-0.548-0.406-0.899-0.56v0c-0.414-0.18-0.893-0.265-1.435-0.255-0.542 0.01-1.038 0.12-1.488 0.328v0l-2.919 6.706 1.146 0.97c-0.069 0.261-0.202 0.472-0.398 0.633v0c-0.341-0.178-0.692-0.357-1.055-0.537-0.369-0.183-0.735-0.354-1.099-0.513v0c-0.364-0.159-0.767-0.323-1.209-0.492-0.435-0.167-0.844-0.319-1.225-0.455v0c0.069-0.261 0.183-0.481 0.343-0.658v0c0.275 0.038 0.546 0.084 0.812 0.141 0.261 0.054 0.502 0.073 0.726 0.058v0l5.425-12.461-1.56-0.87c0.074-0.274 0.209-0.488 0.403-0.643v0c1.005 0.266 1.964 0.474 2.876 0.625v0c0.126 0.07 0.239 0.145 0.339 0.226 0.103 0.09 0.207 0.195 0.311 0.315z" fill="#000000" data-fill-palette-color="accent"></path><path d="M80.633 213.692l-0.124 0.414c-0.414 1.377-0.459 2.526-0.135 3.445 0.322 0.926 0.962 1.533 1.92 1.822v0c0.42 0.126 0.781 0.21 1.084 0.25 0.304 0.034 0.614 0.027 0.928-0.021 0.323-0.053 0.7-0.151 1.129-0.294v0c0.187 0.163 0.259 0.364 0.216 0.601v0c-0.568 0.366-1.188 0.598-1.861 0.696-0.665 0.094-1.299 0.05-1.902-0.131v0c-1.036-0.311-1.876-0.8-2.52-1.466-0.648-0.674-1.066-1.486-1.252-2.436-0.195-0.945-0.122-1.985 0.218-3.12v0c0.349-1.161 0.875-2.079 1.579-2.754 0.697-0.677 1.496-1.113 2.398-1.307 0.897-0.202 1.818-0.162 2.763 0.122v0c1.213 0.365 1.99 1.041 2.33 2.03 0.333 0.987 0.306 2.123-0.081 3.409v0c-0.028 0.092-0.054 0.18-0.079 0.265-0.024 0.079-0.057 0.165-0.1 0.26v0l-0.353 0.141zM84.789 210.393v0c-0.394-0.118-0.824-0.115-1.29 0.009-0.462 0.133-0.918 0.4-1.367 0.801-0.45 0.401-0.839 0.96-1.169 1.677v0l4.531 1.093c0.315-1.049 0.437-1.86 0.366-2.432-0.071-0.572-0.428-0.955-1.071-1.148z" fill="#000000" data-fill-palette-color="accent"></path><path d="M90.864 219.02l-0.203 2.261c0.263 0.196 0.54 0.352 0.832 0.469 0.293 0.111 0.628 0.201 1.004 0.272v0c0.572 0.107 1.108 0.075 1.607-0.097 0.498-0.165 0.799-0.527 0.903-1.085v0c0.055-0.296 0.026-0.584-0.089-0.864-0.114-0.286-0.348-0.598-0.703-0.936-0.347-0.344-0.859-0.753-1.537-1.228v0c-0.744-0.529-1.292-1.085-1.643-1.665-0.358-0.583-0.454-1.315-0.289-2.197v0c0.133-0.714 0.417-1.242 0.85-1.586 0.435-0.351 0.952-0.564 1.552-0.64 0.606-0.075 1.222-0.054 1.848 0.063v0c0.545 0.102 1.081 0.258 1.606 0.467 0.518 0.208 0.969 0.443 1.353 0.703v0c-0.013 0.067-0.023 0.142-0.032 0.224-0.01 0.089-0.021 0.167-0.033 0.234v0c-0.16 0.855-0.442 1.638-0.847 2.35v0c-0.063 0.002-0.119 0.002-0.167 0-0.048-0.002-0.103-0.009-0.164-0.02v0c-0.209-0.039-0.409-0.122-0.601-0.248v0l0.089-2.325c-0.17-0.095-0.374-0.181-0.609-0.26-0.229-0.078-0.462-0.139-0.698-0.183v0c-0.323-0.06-0.651-0.076-0.984-0.048-0.334 0.035-0.622 0.141-0.864 0.319-0.242 0.178-0.4 0.465-0.475 0.863v0c-0.049 0.263-0.039 0.526 0.03 0.789 0.077 0.258 0.27 0.549 0.579 0.871 0.308 0.329 0.786 0.736 1.434 1.219v0c1.025 0.742 1.716 1.404 2.074 1.987 0.365 0.584 0.478 1.246 0.34 1.987v0c-0.133 0.714-0.431 1.261-0.893 1.641-0.46 0.374-1.016 0.608-1.667 0.702-0.646 0.102-1.313 0.089-1.999-0.039v0c-0.66-0.123-1.262-0.292-1.808-0.506-0.552-0.215-1.082-0.551-1.588-1.007v0l0.066-0.354c0.07-0.377 0.166-0.76 0.287-1.148 0.129-0.394 0.314-0.805 0.555-1.234v0c0.083 0.002 0.152 0.007 0.206 0.018v0c0.256 0.048 0.482 0.125 0.678 0.231z" fill="#000000" data-fill-palette-color="accent"></path><path d="M111.367 224.707l-2.424-7.807-2.914 7.318c-0.098 0.051-0.257 0.107-0.479 0.168-0.228 0.054-0.404 0.078-0.527 0.074v0l-3.567-10.326-1.628-0.49c-0.038-0.269 0.005-0.517 0.13-0.745v0c0.383 0.027 0.813 0.067 1.291 0.118 0.478 0.045 0.916 0.074 1.313 0.088v0c0.411 0.015 0.863 0.017 1.356 0.007 0.494-0.017 0.94-0.025 1.338-0.024v0c0.031 0.275 0.009 0.525-0.068 0.748v0c-0.262 0.045-0.524 0.098-0.787 0.157-0.269 0.052-0.505 0.126-0.707 0.221v0l1.421 4.523c0.154 0.485 0.3 0.994 0.439 1.527 0.139 0.533 0.257 1.044 0.356 1.534v0l0.062 0.002c0.148-0.495 0.303-0.997 0.465-1.505 0.169-0.508 0.34-0.978 0.513-1.41v0l1.496-3.606-0.266-0.904-1.627-0.49c-0.032-0.268 0.012-0.517 0.13-0.746v0c0.39 0.028 0.81 0.067 1.26 0.117 0.458 0.044 0.885 0.073 1.282 0.087v0c0.411 0.015 0.825 0.016 1.243 0.004 0.412-0.02 0.817-0.029 1.214-0.029v0c0.038 0.276 0.015 0.525-0.067 0.748v0c-0.255 0.046-0.521 0.094-0.797 0.146-0.269 0.045-0.498 0.123-0.687 0.233v0l1.261 4.702c0.139 0.533 0.278 1.052 0.417 1.557 0.14 0.505 0.262 1.017 0.366 1.534v0l0.072 0.003c0.127-0.482 0.271-0.96 0.432-1.434 0.161-0.467 0.328-0.941 0.503-1.421v0l1.682-4.772-1.627-0.49c-0.032-0.268 0.015-0.517 0.139-0.745v0c0.383 0.027 0.734 0.064 1.055 0.11 0.314 0.039 0.673 0.065 1.077 0.079v0c0.411 0.015 0.791 0.015 1.141 0 0.35-0.022 0.724-0.032 1.122-0.032v0c0.031 0.275 0.009 0.525-0.068 0.748v0c-0.269 0.045-0.538 0.094-0.807 0.146-0.262 0.045-0.505 0.122-0.728 0.231v0l-3.774 9.785c-0.098 0.051-0.261 0.111-0.489 0.178-0.235 0.06-0.414 0.088-0.538 0.083z" fill="#000000" data-fill-palette-color="accent"></path><path d="M123.245 224.199v0c-0.851 0.091-1.59-0.054-2.216-0.435-0.634-0.387-0.999-1.033-1.096-1.938v0c-0.076-0.708 0.036-1.306 0.336-1.793 0.299-0.493 0.731-0.894 1.297-1.203 0.559-0.315 1.195-0.551 1.908-0.71 0.712-0.166 1.447-0.282 2.204-0.349v0l-0.179-1.872c-0.071-0.791-0.286-1.388-0.646-1.79-0.359-0.396-0.855-0.559-1.489-0.492v0c-0.354 0.038-0.692 0.098-1.014 0.181-0.322 0.083-0.64 0.199-0.954 0.35v0l-0.035 2.287c-0.11 0.067-0.263 0.114-0.46 0.142-0.197 0.028-0.354 0.041-0.471 0.04v0c-0.173-0.457-0.328-0.912-0.466-1.366-0.132-0.461-0.215-0.914-0.249-1.358v0c0.635-0.378 1.279-0.667 1.933-0.867 0.66-0.201 1.389-0.345 2.185-0.43v0c0.79-0.084 1.444-0.024 1.962 0.182 0.517 0.2 0.925 0.6 1.224 1.202 0.298 0.595 0.506 1.451 0.626 2.568v0l0.609 5.7c0.258 0.09 0.515 0.145 0.772 0.166 0.264 0.02 0.519 0.055 0.765 0.104v0c0.069 0.261 0.061 0.51-0.023 0.746v0c-0.226 0.072-0.495 0.139-0.805 0.2-0.317 0.061-0.639 0.11-0.966 0.144v0c-0.47 0.05-0.879 0.053-1.229 0.008v0l-0.415-1.082-0.082 0.009c-0.315 0.406-0.721 0.766-1.217 1.08-0.497 0.308-1.1 0.5-1.809 0.576zM123.928 222.948v0c0.395-0.042 0.807-0.21 1.237-0.504 0.423-0.3 0.726-0.618 0.911-0.955v0l-0.307-2.87c-1.464 0.157-2.474 0.44-3.029 0.85-0.562 0.411-0.797 1.05-0.705 1.915v0c0.063 0.586 0.266 1.005 0.61 1.257 0.345 0.259 0.772 0.362 1.283 0.307z" fill="#000000" data-fill-palette-color="accent"></path><path d="M134.762 214.778l1.304 5.993 2.12-0.02c0.097 0.252 0.116 0.5 0.057 0.745v0c-0.257 0.042-0.571 0.096-0.942 0.163-0.371 0.067-0.739 0.133-1.103 0.198-0.364 0.065-0.68 0.127-0.948 0.185v0c-0.388 0.084-0.811 0.187-1.269 0.308-0.451 0.119-0.871 0.235-1.259 0.348v0c-0.097-0.252-0.136-0.496-0.117-0.732v0c0.252-0.132 0.499-0.252 0.741-0.361 0.249-0.11 0.46-0.237 0.633-0.379v0l-1.772-8.141-1.774 0.207c-0.101-0.272-0.118-0.525-0.049-0.757v0c0.487-0.176 0.974-0.37 1.461-0.581 0.488-0.204 0.934-0.41 1.338-0.617v0c0.143-0.017 0.262-0.019 0.356-0.004 0.101 0.013 0.23 0.041 0.387 0.084v0l0.413 1.897 0.024 0.016c0.29-0.729 0.654-1.376 1.092-1.941 0.438-0.565 0.965-0.914 1.58-1.048v0c0.234-0.051 0.473-0.082 0.716-0.093 0.235-0.016 0.478 0.022 0.729 0.115v0c0.151 0.563 0.245 1.11 0.284 1.641 0.039 0.531 0.034 1.058-0.014 1.58v0c-0.097 0.035-0.251 0.072-0.46 0.111-0.209 0.038-0.377 0.04-0.503 0.005v0l-0.746-2.025c-0.489 0.106-0.942 0.391-1.36 0.853-0.418 0.462-0.724 1.213-0.919 2.25z" fill="#000000" data-fill-palette-color="accent"></path><path d="M146.696 219.374v0c-0.812 0.27-1.565 0.285-2.257 0.046-0.701-0.243-1.196-0.797-1.483-1.662v0c-0.225-0.676-0.242-1.283-0.054-1.822 0.187-0.546 0.524-1.029 1.012-1.451 0.479-0.426 1.05-0.793 1.713-1.1 0.661-0.313 1.354-0.583 2.08-0.81v0l-0.573-1.791c-0.237-0.758-0.575-1.296-1.012-1.612-0.435-0.31-0.955-0.365-1.559-0.164v0c-0.338 0.112-0.655 0.243-0.952 0.392-0.297 0.149-0.583 0.331-0.859 0.545v0l0.453 2.242c-0.093 0.089-0.233 0.168-0.419 0.237-0.186 0.069-0.337 0.116-0.452 0.139v0c-0.266-0.41-0.515-0.821-0.746-1.235-0.227-0.423-0.404-0.847-0.532-1.274v0c0.54-0.504 1.108-0.924 1.704-1.259 0.602-0.337 1.284-0.632 2.044-0.885v0c0.754-0.25 1.406-0.33 1.956-0.238 0.548 0.085 1.032 0.39 1.452 0.914 0.417 0.518 0.803 1.31 1.157 2.376v0l1.807 5.44c0.271 0.033 0.534 0.032 0.79-0.002 0.262-0.037 0.519-0.057 0.77-0.061v0c0.123 0.241 0.168 0.485 0.135 0.734v0c-0.206 0.119-0.454 0.241-0.744 0.367-0.297 0.127-0.601 0.243-0.913 0.346v0c-0.448 0.149-0.848 0.238-1.199 0.269v0l-0.636-0.969-0.078 0.026c-0.221 0.463-0.541 0.901-0.96 1.315-0.421 0.407-0.969 0.722-1.645 0.947zM147.097 218.006v0c0.377-0.125 0.744-0.377 1.102-0.756 0.349-0.383 0.578-0.759 0.687-1.126v0l-0.91-2.74c-1.397 0.464-2.324 0.956-2.779 1.476-0.462 0.521-0.556 1.195-0.282 2.02v0c0.186 0.559 0.473 0.925 0.863 1.099 0.392 0.18 0.831 0.189 1.319 0.027z" fill="#000000" data-fill-palette-color="accent"></path><path d="M171.338 204.995v0c0.192-0.036 0.344-0.015 0.458 0.062 0.117 0.084 0.223 0.189 0.317 0.317v0c-0.255 0.894-0.658 1.698-1.208 2.413-0.551 0.714-1.236 1.299-2.057 1.756v0c-0.832 0.463-1.707 0.77-2.626 0.921-0.919 0.151-1.839 0.11-2.76-0.122-0.917-0.226-1.791-0.677-2.622-1.351-0.827-0.669-1.573-1.601-2.239-2.798v0c-0.659-1.185-1.034-2.317-1.125-3.395-0.088-1.088 0.03-2.094 0.354-3.019 0.327-0.919 0.802-1.735 1.423-2.45 0.621-0.714 1.318-1.286 2.09-1.715v0c0.91-0.506 1.743-0.876 2.499-1.109 0.762-0.236 1.468-0.355 2.118-0.356v0c0.34 0.555 0.591 1.117 0.751 1.687 0.157 0.563 0.28 1.13 0.369 1.699v0c-0.113 0.079-0.248 0.154-0.404 0.225-0.156 0.071-0.312 0.115-0.468 0.131v0l-1.545-2.291c-0.51 0.056-0.963 0.164-1.361 0.322-0.407 0.156-0.832 0.357-1.274 0.604v0c-0.874 0.486-1.511 1.186-1.913 2.099-0.398 0.904-0.545 1.914-0.44 3.032 0.111 1.114 0.474 2.225 1.09 3.332v0c0.649 1.167 1.39 2.103 2.221 2.808 0.831 0.705 1.714 1.123 2.649 1.253 0.941 0.127 1.896-0.079 2.865-0.619v0c0.772-0.43 1.376-0.942 1.813-1.538 0.433-0.602 0.775-1.235 1.025-1.898z" fill="#000000" data-fill-palette-color="accent"></path><path d="M178.418 203.28v0c-0.687 0.511-1.397 0.761-2.13 0.752-0.742-0.011-1.385-0.382-1.928-1.114v0c-0.425-0.572-0.632-1.143-0.622-1.714 0.006-0.577 0.175-1.142 0.506-1.695 0.321-0.555 0.749-1.082 1.283-1.581 0.529-0.505 1.103-0.978 1.721-1.421v0l-1.105-1.52c-0.463-0.646-0.952-1.05-1.466-1.215-0.51-0.158-1.021-0.047-1.532 0.333v0c-0.286 0.212-0.546 0.436-0.782 0.671-0.235 0.235-0.45 0.497-0.644 0.786v0l1.132 1.987c-0.061 0.113-0.169 0.232-0.324 0.357-0.155 0.124-0.284 0.215-0.385 0.273v0c-0.381-0.306-0.746-0.619-1.096-0.939-0.348-0.33-0.649-0.678-0.904-1.043v0c0.355-0.648 0.763-1.224 1.224-1.729 0.466-0.509 1.021-1.003 1.664-1.481v0c0.638-0.474 1.232-0.754 1.783-0.839 0.547-0.091 1.102 0.047 1.665 0.413 0.559 0.361 1.173 0.992 1.843 1.894v0l3.421 4.6c0.267-0.054 0.517-0.137 0.748-0.249 0.237-0.117 0.475-0.217 0.713-0.299v0c0.192 0.19 0.312 0.408 0.359 0.654v0c-0.158 0.177-0.356 0.371-0.593 0.582-0.242 0.214-0.495 0.419-0.758 0.615v0c-0.379 0.282-0.731 0.492-1.055 0.63v0l-0.907-0.72-0.066 0.049c-0.065 0.509-0.232 1.026-0.5 1.549-0.272 0.518-0.694 0.99-1.265 1.414zM178.371 201.856v0c0.319-0.237 0.589-0.591 0.809-1.063 0.212-0.473 0.311-0.901 0.3-1.285v0l-1.723-2.316c-1.182 0.879-1.907 1.636-2.177 2.271-0.275 0.64-0.153 1.309 0.366 2.007v0c0.351 0.473 0.739 0.73 1.163 0.773 0.429 0.048 0.849-0.081 1.262-0.387z" fill="#000000" data-fill-palette-color="accent"></path><path d="M188.709 194.875v0c-0.335 0.304-0.696 0.517-1.085 0.638-0.389 0.122-0.802 0.1-1.241-0.067-0.433-0.171-0.9-0.533-1.402-1.085v0l-4.58-5.042-1.102 1.001c-0.172-0.057-0.316-0.144-0.431-0.26-0.116-0.117-0.216-0.243-0.302-0.378v0c0.446-0.405 0.725-0.765 0.837-1.08 0.117-0.319 0.108-0.676-0.028-1.071-0.136-0.394-0.357-0.897-0.662-1.508v0l0.836-0.76 1.609 1.772 1.666-1.512c0.428 0.176 0.693 0.467 0.794 0.874v0l-1.665 1.513 4.22 4.646c0.442 0.487 0.799 0.834 1.07 1.041 0.276 0.202 0.514 0.296 0.714 0.281 0.195-0.02 0.391-0.119 0.589-0.299v0c0.167-0.152 0.304-0.332 0.411-0.54 0.097-0.209 0.183-0.42 0.256-0.635v0c0.23-0.042 0.451 0.044 0.664 0.258v0c0.008 0.243-0.076 0.573-0.251 0.991-0.175 0.418-0.481 0.825-0.917 1.222z" fill="#000000" data-fill-palette-color="accent"></path><path d="M189.587 185.339l0.318 0.291c1.06 0.972 2.075 1.512 3.044 1.621 0.974 0.113 1.799-0.199 2.475-0.937v0c0.296-0.323 0.529-0.612 0.697-0.866 0.163-0.259 0.292-0.541 0.385-0.845 0.093-0.314 0.169-0.696 0.227-1.145v0c0.228-0.097 0.44-0.075 0.635 0.067v0c0.082 0.67 0.021 1.33-0.183 1.979-0.205 0.639-0.52 1.191-0.946 1.655v0c-0.731 0.798-1.537 1.341-2.416 1.632-0.889 0.291-1.802 0.313-2.738 0.067-0.936-0.236-1.841-0.754-2.714-1.554v0c-0.893-0.819-1.491-1.693-1.794-2.62-0.307-0.922-0.351-1.832-0.132-2.729 0.208-0.896 0.646-1.708 1.312-2.434v0c0.856-0.934 1.803-1.338 2.841-1.214 1.033 0.13 2.045 0.648 3.034 1.556v0c0.071 0.065 0.139 0.127 0.205 0.187 0.061 0.056 0.124 0.123 0.19 0.203v0l-0.027 0.379zM188.425 180.161v0c-0.278 0.303-0.462 0.691-0.553 1.166-0.081 0.474-0.039 1 0.126 1.579 0.166 0.579 0.499 1.173 1.001 1.782v0l2.956-3.604c-0.808-0.741-1.485-1.203-2.031-1.388-0.546-0.185-1.046-0.03-1.499 0.465z" fill="#000000" data-fill-palette-color="accent"></path><path d="M196.881 174.334l4.952 3.619 1.573-1.421c0.24 0.124 0.419 0.298 0.536 0.52v0c-0.165 0.202-0.364 0.451-0.597 0.747-0.233 0.296-0.465 0.589-0.694 0.88-0.229 0.29-0.425 0.546-0.586 0.767v0c-0.234 0.321-0.483 0.678-0.745 1.072-0.258 0.388-0.496 0.753-0.712 1.095v0c-0.24-0.124-0.431-0.281-0.573-0.469v0c0.101-0.266 0.206-0.52 0.315-0.762 0.113-0.248 0.187-0.482 0.222-0.704v0l-6.726-4.916-1.19 1.331c-0.256-0.137-0.436-0.315-0.539-0.533v0c0.248-0.455 0.484-0.923 0.708-1.404 0.23-0.477 0.427-0.926 0.592-1.349v0c0.096-0.108 0.184-0.188 0.264-0.24 0.084-0.057 0.199-0.122 0.345-0.193v0l1.567 1.146 0.029-0.005c-0.267-0.738-0.423-1.463-0.471-2.176-0.047-0.713 0.115-1.324 0.487-1.833v0c0.141-0.194 0.299-0.375 0.475-0.544 0.165-0.168 0.372-0.3 0.621-0.398v0c0.486 0.321 0.92 0.668 1.302 1.04 0.381 0.372 0.727 0.769 1.037 1.191v0c-0.05 0.091-0.14 0.22-0.27 0.388-0.131 0.167-0.255 0.28-0.374 0.337v0l-1.901-1.02c-0.295 0.404-0.446 0.917-0.452 1.54-0.006 0.623 0.262 1.388 0.805 2.294z" fill="#000000" data-fill-palette-color="accent"></path><path d="M199.793 163.699l8.202 4.979 1.116-1.006c0.25 0.103 0.441 0.264 0.573 0.481v0c-0.222 0.314-0.447 0.638-0.674 0.972-0.227 0.335-0.446 0.675-0.655 1.021v0c-0.206 0.34-0.423 0.717-0.651 1.131-0.224 0.409-0.427 0.79-0.61 1.144v0c-0.253-0.098-0.457-0.237-0.611-0.419v0c0.074-0.267 0.157-0.53 0.249-0.786 0.088-0.251 0.14-0.488 0.155-0.711v0l-7.123-4.323-1.066 1.42c-0.271-0.108-0.467-0.267-0.587-0.477v0c0.208-0.475 0.403-0.961 0.585-1.46 0.188-0.495 0.346-0.96 0.474-1.394v0c0.086-0.116 0.178-0.221 0.275-0.314 0.097-0.093 0.213-0.179 0.348-0.257zM197.19 163.79v0c-0.124 0.205-0.305 0.351-0.543 0.44-0.241 0.094-0.487 0.129-0.737 0.105-0.259-0.021-0.474-0.083-0.644-0.186v0c-0.158-0.096-0.278-0.261-0.36-0.495-0.082-0.234-0.121-0.486-0.118-0.757 0.007-0.276 0.07-0.511 0.187-0.704v0c0.131-0.217 0.319-0.367 0.562-0.451 0.247-0.09 0.491-0.123 0.732-0.097 0.25 0.024 0.46 0.087 0.63 0.19v0c0.158 0.096 0.283 0.26 0.374 0.492 0.092 0.232 0.133 0.481 0.123 0.747-0.013 0.272-0.082 0.511-0.206 0.716z" fill="#000000" data-fill-palette-color="accent"></path><path d="M202.927 157.512l1.279 0.683 0.032-0.019c-0.33-0.905-0.454-1.744-0.37-2.515 0.074-0.768 0.227-1.396 0.458-1.885v0c0.394-0.836 0.944-1.383 1.649-1.642 0.705-0.258 1.516-0.171 2.432 0.262v0l6.216 2.909 1.03-1.172c0.259 0.077 0.466 0.216 0.621 0.417v0c-0.188 0.335-0.382 0.69-0.583 1.066-0.203 0.381-0.389 0.752-0.558 1.111v0c-0.169 0.359-0.34 0.745-0.511 1.156-0.168 0.405-0.326 0.796-0.474 1.174v0c-0.259-0.077-0.475-0.197-0.647-0.362v0c0.064-0.28 0.113-0.537 0.148-0.771 0.025-0.23 0.046-0.459 0.062-0.686v0l-5.333-2.516c-0.88-0.415-1.551-0.565-2.014-0.45-0.46 0.109-0.83 0.46-1.111 1.054v0c-0.225 0.477-0.351 0.985-0.379 1.526-0.027 0.54 0.078 1.078 0.318 1.615v0l6.494 3.063 1-1.107c0.262 0.071 0.47 0.207 0.625 0.408v0c-0.188 0.335-0.378 0.681-0.569 1.038-0.194 0.363-0.376 0.724-0.545 1.083v0c-0.169 0.359-0.346 0.757-0.529 1.193-0.18 0.43-0.344 0.834-0.492 1.211v0c-0.259-0.077-0.476-0.194-0.651-0.353v0c0.043-0.268 0.091-0.529 0.143-0.784 0.049-0.265 0.085-0.517 0.107-0.756v0l-7.536-3.555-0.916 1.533c-0.278-0.086-0.488-0.226-0.63-0.422v0c0.151-0.512 0.286-1.016 0.407-1.512 0.124-0.487 0.237-0.96 0.339-1.419v0c0.115-0.211 0.277-0.403 0.488-0.576z" fill="#000000" data-fill-palette-color="accent"></path><path d="M215.391 145.866v0c-0.081 0.247-0.182 0.492-0.304 0.733-0.118 0.25-0.26 0.499-0.427 0.747v0c0.159 0.196 0.291 0.344 0.395 0.442 0.1 0.09 0.193 0.149 0.278 0.177v0c0.124 0.04 0.26 0.031 0.409-0.028 0.153-0.051 0.356-0.262 0.607-0.634 0.242-0.367 0.569-0.992 0.979-1.874v0c0.408-0.875 0.799-1.587 1.173-2.135 0.376-0.555 0.803-0.926 1.283-1.116 0.48-0.189 1.071-0.169 1.774 0.061v0c0.612 0.2 1.087 0.521 1.426 0.962 0.332 0.44 0.559 0.957 0.682 1.552 0.123 0.595 0.152 1.21 0.089 1.845-0.059 0.644-0.187 1.268-0.385 1.874v0c-0.338 1.035-0.732 1.832-1.181 2.392-0.458 0.564-0.942 0.932-1.452 1.103-0.517 0.17-1.009 0.178-1.478 0.025v0c-0.488-0.159-0.929-0.455-1.321-0.885-0.395-0.424-0.622-1.053-0.681-1.886v0c-0.537 0.322-1.057 0.401-1.558 0.236v0c-0.449-0.147-0.793-0.353-1.03-0.617-0.231-0.263-0.413-0.535-0.545-0.815v0c-0.45 0.451-0.969 0.782-1.556 0.993-0.588 0.211-1.233 0.202-1.937-0.027v0c-0.651-0.213-1.156-0.518-1.516-0.916-0.364-0.407-0.615-0.864-0.752-1.37-0.129-0.51-0.174-1.033-0.136-1.568 0.038-0.535 0.134-1.04 0.289-1.516v0c0.106-0.326 0.246-0.654 0.42-0.987 0.167-0.335 0.372-0.642 0.615-0.923v0l-0.79-3.241c0.095-0.092 0.252-0.155 0.473-0.191 0.219-0.029 0.441-0.036 0.666-0.02 0.227 0.009 0.405 0.05 0.534 0.12v0c0.003 0.411-0.02 0.855-0.067 1.329-0.043 0.483-0.126 0.96-0.251 1.431v0c0.403-0.351 0.879-0.596 1.428-0.733 0.554-0.129 1.169-0.083 1.846 0.138v0c0.599 0.196 1.068 0.493 1.406 0.891 0.343 0.407 0.577 0.869 0.703 1.386 0.131 0.525 0.182 1.054 0.153 1.585-0.029 0.531-0.116 1.018-0.261 1.46zM214.61 145.611v0c0.225-0.69 0.166-1.336-0.177-1.938-0.348-0.611-0.91-1.043-1.685-1.296v0c-0.84-0.274-1.571-0.264-2.192 0.03-0.62 0.288-1.042 0.776-1.268 1.466v0c-0.225 0.69-0.174 1.337 0.155 1.942 0.329 0.604 0.913 1.044 1.752 1.318v0c0.775 0.253 1.483 0.236 2.124-0.052 0.635-0.29 1.065-0.78 1.291-1.47zM218.732 146.622v0c-0.12 0.235-0.26 0.531-0.42 0.89-0.16 0.358-0.351 0.71-0.572 1.056v0c0.167 0.415 0.376 0.757 0.627 1.026 0.244 0.267 0.623 0.485 1.138 0.652v0c0.573 0.187 1.16 0.109 1.763-0.234 0.609-0.342 1.063-0.971 1.362-1.89v0c0.217-0.664 0.295-1.269 0.236-1.814-0.06-0.545-0.218-0.997-0.476-1.355-0.256-0.364-0.553-0.602-0.891-0.713v0c-0.41-0.134-0.775-0.098-1.094 0.108-0.326 0.203-0.624 0.51-0.895 0.918-0.279 0.413-0.538 0.865-0.778 1.356z" fill="#000000" data-fill-palette-color="accent"></path><path d="M0 112.269c0-3.409 2.763-6.172 6.172-6.173 3.409 0 6.172 2.763 6.172 6.173 0 3.409-2.763 6.172-6.172 6.172-3.409 0-6.172-2.763-6.172-6.172z" fill="#000000" data-fill-palette-color="accent"></path><path d="M212.677 112.269c0-3.409 2.763-6.172 6.173-6.173 3.409 0 6.172 2.763 6.172 6.173 0 3.409-2.763 6.172-6.172 6.172-3.409 0-6.172-2.763-6.173-6.172z" fill="#000000" data-fill-palette-color="accent"></path></g><g id="text-1"></g></svg></g></svg></g><g></g></svg></g><defs></defs></svg><rect width="318.46216823638895" height="247.2" fill="none" stroke="none" visibility="hidden"></rect></g></svg></g></svg>